<?xml version="1.0" encoding="UTF-8" standalone="no"?>
<!DOCTYPE svg PUBLIC "-//W3C//DTD SVG 1.1//EN" "http://www.w3.org/Graphics/SVG/1.1/DTD/svg11.dtd">
<svg version="1.1" xmlns="http://www.w3.org/2000/svg" xmlns:xlink="http://www.w3.org/1999/xlink" preserveAspectRatio="xMidYMid meet" viewBox="0 0 128 128" width="128" height="128"><defs><path d="M65.88 66C61.61 64.3 56.65 65.86 53.8 69.79C52.1 72.14 51.41 74.97 51.85 77.75C52.26 80.32 53.62 82.56 55.67 84.05C60.08 87.24 66.48 85.98 69.81 81.39C73.19 76.73 72.35 70.33 67.94 67.13C67.3 66.66 66.61 66.28 65.88 66Z" id="g25fhmw6MX"></path><path d="M67.98 60.7C69.15 61.17 70.26 61.78 71.28 62.52C71.36 62.57 71.42 62.64 71.5 62.69C72.96 61.93 74.28 60.83 75.31 59.41C76.96 57.13 77.67 54.38 77.29 51.66C76.93 48.99 75.56 46.68 73.44 45.14C72.8 44.68 72.11 44.29 71.38 44.01C67.11 42.32 62.14 43.88 59.3 47.8C56.52 51.62 56.63 56.56 59.15 60C62.06 59.4 65.11 59.57 67.98 60.7Z" id="h14KdRgJi5"></path><path d="M46.41 72.79C43.85 73.12 23.43 75.77 20.87 76.1C20.38 76.17 19.9 76.1 19.46 75.93C18.53 75.56 17.82 74.71 17.69 73.65C17.49 72.09 18.59 70.66 20.15 70.46C23.04 70.08 46.15 67.09 49.04 66.71C49.1 66.63 49.14 66.53 49.2 66.45C50.46 64.7 52.03 63.3 53.76 62.2C53.75 62.2 53.75 62.2 53.74 62.21C52.54 60.2 51.82 57.93 51.61 55.6C51.11 55.71 50.61 55.84 50.1 55.9C44.34 56.64 38.37 54.92 33.89 51.28C30.46 55.98 25.26 59.12 19.38 59.88C17.61 60.11 15.85 60.12 14.12 59.91C14.49 65.34 12.78 70.66 9.38 74.84C13.74 78.02 16.75 82.73 17.76 88.08C19.39 87.43 21.09 86.99 22.86 86.76C28.63 86.02 34.59 87.74 39.08 91.38C41.42 88.17 44.61 85.72 48.27 84.23C47.25 82.55 46.55 80.67 46.23 78.65C45.91 76.68 46.01 74.7 46.41 72.79Z" id="aTGsn3gDD"></path><path d="M107.02 110.22C106.19 110.87 105.11 111 104.2 110.63C103.75 110.45 103.34 110.16 103.02 109.75C101.04 107.25 85.2 87.26 83.22 84.76C81.75 84.63 80.27 84.34 78.85 83.78C77.82 83.37 76.84 82.83 75.92 82.2C75.5 83.07 75.01 83.92 74.42 84.73C73.53 85.96 72.47 86.99 71.34 87.91C72.74 88.98 74.02 90.19 75.11 91.57C78.8 96.22 80.34 102.1 79.51 107.85C81.56 108.03 83.59 108.51 85.51 109.27C88.97 110.64 92.02 112.92 94.35 115.85C95.45 117.25 96.37 118.75 97.08 120.35C101.55 117.23 106.99 115.95 112.33 116.72C112.81 111.35 115.3 106.34 119.36 102.71C117.96 101.65 116.71 100.42 115.6 99.02C111.92 94.37 110.38 88.5 111.2 82.73C106.41 82.31 101.82 80.18 98.34 76.85C98.34 76.85 98.34 76.85 98.34 76.84C98.1 77.24 97.92 77.65 97.64 78.03C95.61 80.84 92.84 82.81 89.8 83.89C89.8 83.89 89.8 83.89 89.8 83.89L107.48 106.22C108 108.24 107.84 109.57 107.02 110.22Z" id="l1XAecaB3S"></path><path d="M80.71 9.07C80.51 11.02 80.04 12.93 79.33 14.74C77.14 20.26 72.82 24.54 67.43 26.68C69.04 30.16 69.64 33.98 69.27 37.75C70.69 37.89 72.1 38.17 73.47 38.71C74.64 39.17 75.75 39.79 76.77 40.53C77.8 41.27 78.67 42.16 79.47 43.11C80.53 40.43 89.03 19 90.09 16.32C90.67 14.86 92.32 14.14 93.78 14.72C95.25 15.3 95.96 16.96 95.38 18.42C94.12 21.59 84.08 46.94 82.82 50.1C82.81 50.14 82.78 50.16 82.76 50.2C82.81 50.43 82.89 50.65 82.93 50.89C83.03 51.65 83.02 52.41 83.02 53.17C83.02 53.17 83.02 53.17 83.02 53.16C85.73 52.72 88.54 52.95 91.2 54.01C91.72 54.21 92.22 54.46 92.72 54.73C92.84 54.33 92.96 53.92 93.11 53.53C95.29 48.03 99.61 43.75 105.01 41.59C102.55 36.33 102.34 30.26 104.52 24.74C105.24 22.92 106.22 21.21 107.42 19.65C102.35 17.02 98.61 12.57 96.88 7.26C91.94 9.96 86.13 10.64 80.71 9.07Z" id="k9GIxXS49"></path><path d="M89.1 59.3C86.7 58.35 84.1 58.46 81.75 59.4C81.26 60.56 80.68 61.69 79.92 62.74C78.65 64.49 77.08 65.89 75.36 66.99C77 69.72 77.74 72.92 77.53 76.13C77.94 76.57 78.39 76.99 78.89 77.36C79.53 77.82 80.22 78.2 80.94 78.49C85.22 80.18 90.19 78.62 93.03 74.7C94.68 72.42 95.39 69.66 95.01 66.95C94.65 64.28 93.28 61.97 91.16 60.43C90.52 59.97 89.83 59.59 89.1 59.3Z" id="g2GdNY6cmP"></path><path d="M98.71 -0.17L98.79 -0.17L98.87 -0.16L98.94 -0.15L99.02 -0.14L99.09 -0.13L99.17 -0.11L99.24 -0.1L99.32 -0.08L99.39 -0.06L99.47 -0.03L99.54 -0.01L99.61 0.02L99.69 0.05L99.76 0.08L99.83 0.12L99.9 0.15L99.97 0.19L100.04 0.23L100.11 0.28L100.18 0.32L100.25 0.37L100.32 0.41L100.39 0.46L100.45 0.51L100.52 0.57L100.58 0.62L100.64 0.68L100.7 0.73L100.76 0.79L100.82 0.85L100.88 0.91L100.93 0.98L100.99 1.04L101.04 1.11L101.09 1.17L101.14 1.24L101.18 1.31L101.23 1.38L101.27 1.45L101.31 1.52L101.35 1.59L101.39 1.66L101.42 1.74L101.45 1.81L101.48 1.89L101.51 1.96L101.53 2.04L101.56 2.11L101.58 2.19L101.59 2.27L101.61 2.35L101.62 2.42L101.67 2.85L101.74 3.28L101.82 3.71L101.91 4.13L102.01 4.54L102.13 4.95L102.25 5.36L102.38 5.76L102.52 6.16L102.68 6.56L102.84 6.95L103.02 7.33L103.2 7.71L103.39 8.08L103.6 8.44L103.81 8.81L104.03 9.16L104.26 9.51L104.5 9.85L104.75 10.18L105.01 10.51L105.27 10.83L105.55 11.15L105.83 11.45L106.12 11.75L106.42 12.04L106.73 12.32L107.04 12.6L107.36 12.87L107.69 13.12L108.03 13.37L108.37 13.61L108.72 13.85L109.08 14.07L109.45 14.28L109.82 14.49L110.2 14.68L110.58 14.86L110.97 15.04L111.37 15.2L111.42 15.22L111.47 15.24L111.52 15.26L111.57 15.28L111.62 15.3L111.67 15.32L111.71 15.33L111.76 15.35L111.81 15.37L111.85 15.38L111.9 15.4L111.94 15.42L111.99 15.43L112.03 15.45L112.08 15.46L112.12 15.48L112.16 15.49L112.21 15.51L112.25 15.52L112.29 15.53L112.33 15.55L112.37 15.56L112.41 15.57L112.46 15.58L112.5 15.6L112.54 15.61L112.58 15.62L112.62 15.63L112.66 15.64L112.7 15.66L112.74 15.67L112.78 15.68L112.82 15.69L112.86 15.7L112.89 15.71L112.93 15.72L112.97 15.73L113.01 15.74L113.05 15.75L113.09 15.76L113.17 15.78L113.24 15.81L113.32 15.83L113.39 15.86L113.47 15.89L113.54 15.92L113.61 15.95L113.68 15.99L113.75 16.02L113.82 16.06L113.88 16.1L113.95 16.14L114.01 16.19L114.08 16.23L114.14 16.28L114.2 16.32L114.26 16.37L114.31 16.43L114.37 16.48L114.42 16.53L114.48 16.59L114.53 16.64L114.58 16.7L114.62 16.76L114.67 16.82L114.72 16.89L114.76 16.95L114.8 17.01L114.84 17.08L114.88 17.15L114.92 17.22L114.95 17.28L114.98 17.36L115.01 17.43L115.04 17.5L115.07 17.57L115.09 17.65L115.12 17.72L115.14 17.8L115.16 17.88L115.17 17.95L115.19 18.03L115.2 18.11L115.21 18.19L115.22 18.27L115.23 18.34L115.23 18.42L115.23 18.5L115.23 18.58L115.23 18.65L115.22 18.73L115.22 18.81L115.21 18.89L115.2 18.96L115.18 19.04L115.17 19.11L115.15 19.19L115.13 19.26L115.11 19.34L115.09 19.41L115.06 19.48L115.04 19.56L115.01 19.63L114.98 19.7L114.95 19.77L114.91 19.84L114.87 19.9L114.84 19.97L114.8 20.04L114.75 20.1L114.71 20.17L114.66 20.23L114.62 20.29L114.57 20.35L114.52 20.41L114.46 20.47L114.41 20.52L114.35 20.58L114.29 20.63L114.23 20.69L114.09 20.81L113.94 20.94L113.8 21.07L113.65 21.21L113.51 21.34L113.38 21.47L113.24 21.61L113.1 21.75L112.97 21.89L112.84 22.03L112.71 22.17L112.58 22.31L112.46 22.46L112.34 22.6L112.22 22.75L112.1 22.9L111.98 23.05L111.86 23.2L111.75 23.35L111.64 23.5L111.53 23.66L111.42 23.81L111.31 23.97L111.21 24.13L111.11 24.29L111.01 24.45L110.91 24.61L110.82 24.77L110.72 24.94L110.63 25.1L110.54 25.27L110.45 25.44L110.37 25.61L110.28 25.78L110.2 25.95L110.12 26.13L110.04 26.3L109.97 26.48L109.89 26.65L109.82 26.83L109.68 27.2L109.55 27.57L109.43 27.95L109.31 28.33L109.21 28.7L109.12 29.08L109.03 29.46L108.96 29.85L108.9 30.23L108.84 30.61L108.8 31L108.76 31.38L108.74 31.77L108.72 32.15L108.71 32.53L108.72 32.92L108.73 33.3L108.75 33.69L108.78 34.07L108.82 34.45L108.87 34.83L108.93 35.21L109 35.59L109.08 35.96L109.17 36.34L109.27 36.71L109.37 37.08L109.49 37.45L109.61 37.81L109.75 38.17L109.89 38.53L110.04 38.89L110.21 39.25L110.38 39.6L110.56 39.94L110.75 40.29L110.94 40.63L111.15 40.96L111.37 41.29L111.59 41.62L111.63 41.68L111.67 41.74L111.71 41.8L111.75 41.86L111.78 41.92L111.81 41.99L111.84 42.05L111.87 42.12L111.9 42.18L111.93 42.25L111.95 42.31L111.97 42.38L111.99 42.45L112.01 42.51L112.03 42.58L112.05 42.65L112.06 42.72L112.07 42.79L112.08 42.85L112.09 42.92L112.1 42.99L112.11 43.06L112.11 43.13L112.11 43.2L112.11 43.27L112.11 43.34L112.11 43.41L112.11 43.48L112.1 43.55L112.09 43.62L112.08 43.69L112.07 43.76L112.06 43.83L112.04 43.9L112.03 43.97L112.01 44.04L111.99 44.11L111.97 44.17L111.94 44.24L111.92 44.31L111.89 44.37L111.86 44.44L111.83 44.51L111.8 44.57L111.77 44.63L111.73 44.69L111.69 44.75L111.66 44.81L111.62 44.87L111.58 44.93L111.54 44.99L111.49 45.04L111.45 45.1L111.4 45.15L111.35 45.2L111.31 45.25L111.26 45.3L111.21 45.35L111.15 45.4L111.1 45.44L111.05 45.49L110.99 45.53L110.94 45.57L110.88 45.61L110.82 45.65L110.76 45.69L110.7 45.72L110.64 45.76L110.58 45.79L110.52 45.82L110.45 45.85L110.39 45.88L110.32 45.91L110.26 45.93L110.19 45.96L110.12 45.98L110.05 46L109.98 46.02L109.91 46.04L109.84 46.05L109.46 46.14L109.07 46.23L108.69 46.34L108.31 46.45L107.94 46.57L107.57 46.7L107.2 46.84L106.84 46.99L106.49 47.15L106.13 47.31L105.79 47.49L105.44 47.67L105.11 47.86L104.78 48.05L104.45 48.26L104.13 48.47L103.81 48.69L103.5 48.92L103.2 49.16L102.9 49.4L102.61 49.65L102.33 49.91L102.05 50.17L101.77 50.44L101.51 50.72L101.25 51.01L101 51.3L100.75 51.59L100.51 51.9L100.28 52.21L100.06 52.52L99.85 52.85L99.64 53.17L99.44 53.51L99.24 53.85L99.06 54.19L98.88 54.54L98.72 54.9L98.56 55.26L98.41 55.63L98.38 55.7L98.35 55.78L98.32 55.86L98.29 55.94L98.26 56.02L98.23 56.1L98.2 56.18L98.17 56.26L98.15 56.34L98.12 56.42L98.09 56.5L98.07 56.58L98.04 56.66L98.02 56.74L98 56.82L97.97 56.9L97.95 56.98L97.93 57.06L97.9 57.15L97.88 57.23L97.86 57.31L97.84 57.39L97.82 57.47L97.8 57.55L97.78 57.63L97.76 57.71L97.74 57.8L97.72 57.88L97.71 57.96L97.69 58.04L97.67 58.12L97.65 58.2L97.64 58.29L97.62 58.37L97.61 58.45L97.59 58.53L97.58 58.61L97.56 58.7L97.55 58.78L97.54 58.86L97.66 59.02L97.78 59.18L97.89 59.34L98.01 59.5L98.12 59.66L98.23 59.83L98.34 59.99L98.45 60.16L98.55 60.33L98.66 60.5L98.76 60.67L98.86 60.84L98.95 61.02L99.05 61.19L99.14 61.37L99.23 61.55L99.32 61.73L99.4 61.91L99.48 62.09L99.56 62.27L99.64 62.46L99.72 62.64L99.79 62.83L99.86 63.02L99.93 63.21L100 63.4L100.06 63.59L100.12 63.78L100.18 63.97L100.24 64.17L100.29 64.36L100.34 64.56L100.39 64.76L100.44 64.96L100.48 65.16L100.52 65.36L100.56 65.56L100.59 65.76L100.63 65.97L100.66 66.17L100.67 66.29L100.69 66.41L100.7 66.52L100.71 66.64L100.72 66.76L100.73 66.87L100.74 66.99L100.75 67.11L100.76 67.22L100.76 67.34L100.77 67.46L100.77 67.57L100.77 67.69L100.78 67.81L100.78 67.92L100.78 68.04L100.78 68.15L100.78 68.27L100.77 68.39L100.77 68.5L100.77 68.62L100.76 68.73L100.75 68.85L100.75 68.97L100.74 69.08L100.73 69.2L100.72 69.31L100.71 69.43L100.7 69.54L100.69 69.66L100.68 69.77L100.67 69.89L100.66 70L100.64 70.12L100.63 70.23L100.61 70.35L100.6 70.46L100.58 70.58L100.56 70.69L100.55 70.81L100.55 70.8L100.57 70.82L100.57 70.83L100.59 70.85L100.59 70.86L100.61 70.88L100.62 70.9L100.63 70.91L100.65 70.94L100.68 70.99L100.7 71.02L100.72 71.04L100.73 71.06L100.74 71.07L100.74 71.08L100.76 71.1L100.77 71.11L100.77 71.12L100.79 71.14L100.79 71.15L100.81 71.17L100.82 71.18L100.82 71.19L100.83 71.2L101.08 71.5L101.33 71.8L101.59 72.09L101.86 72.37L102.14 72.65L102.42 72.91L102.71 73.17L103 73.43L103.3 73.67L103.61 73.91L103.92 74.14L104.24 74.36L104.56 74.58L104.89 74.78L105.23 74.98L105.56 75.17L105.91 75.35L106.25 75.52L106.6 75.69L106.96 75.84L107.32 75.99L107.68 76.13L108.04 76.26L108.41 76.38L108.78 76.5L109.15 76.6L109.53 76.69L109.91 76.78L110.28 76.86L110.67 76.92L111.05 76.98L111.43 77.03L111.82 77.07L112.2 77.1L112.59 77.12L112.98 77.13L113.36 77.12L113.75 77.11L114.14 77.09L114.52 77.06L114.59 77.06L114.67 77.05L114.74 77.05L114.81 77.05L114.88 77.05L114.95 77.05L115.02 77.06L115.09 77.07L115.16 77.07L115.23 77.08L115.3 77.1L115.37 77.11L115.44 77.13L115.51 77.14L115.57 77.16L115.64 77.18L115.71 77.2L115.77 77.23L115.84 77.25L115.9 77.28L115.97 77.31L116.03 77.34L116.09 77.37L116.15 77.4L116.22 77.43L116.28 77.47L116.33 77.51L116.39 77.55L116.45 77.59L116.51 77.63L116.56 77.67L116.62 77.72L116.67 77.76L116.72 77.81L116.77 77.86L116.83 77.91L116.87 77.96L116.92 78.01L116.97 78.07L117.01 78.12L117.06 78.18L117.1 78.24L117.14 78.3L117.18 78.36L117.22 78.42L117.25 78.48L117.29 78.54L117.32 78.6L117.35 78.67L117.38 78.73L117.41 78.79L117.44 78.86L117.46 78.92L117.49 78.99L117.51 79.06L117.53 79.12L117.54 79.19L117.56 79.26L117.58 79.33L117.59 79.4L117.6 79.47L117.61 79.54L117.62 79.6L117.62 79.67L117.63 79.74L117.63 79.81L117.63 79.88L117.63 79.95L117.63 80.02L117.62 80.1L117.62 80.17L117.61 80.24L117.6 80.31L117.59 80.38L117.58 80.45L117.56 80.52L117.55 80.58L117.53 80.65L117.51 80.72L117.49 80.79L117.37 81.17L117.26 81.55L117.16 81.93L117.06 82.32L116.98 82.7L116.91 83.09L116.85 83.48L116.8 83.86L116.75 84.25L116.72 84.64L116.7 85.02L116.68 85.41L116.68 85.8L116.68 86.18L116.7 86.57L116.72 86.95L116.76 87.34L116.8 87.72L116.85 88.1L116.91 88.48L116.99 88.86L117.07 89.23L117.15 89.61L117.25 89.98L117.36 90.35L117.48 90.71L117.6 91.08L117.74 91.44L117.88 91.8L118.04 92.15L118.2 92.5L118.37 92.85L118.55 93.19L118.74 93.53L118.94 93.87L119.14 94.2L119.36 94.53L119.58 94.85L119.82 95.17L120.06 95.49L120.17 95.63L120.29 95.77L120.41 95.91L120.53 96.05L120.65 96.19L120.77 96.32L120.89 96.46L121.02 96.59L121.14 96.72L121.27 96.85L121.4 96.98L121.53 97.1L121.66 97.23L121.8 97.35L121.93 97.47L122.07 97.59L122.2 97.71L122.34 97.82L122.48 97.93L122.62 98.05L122.76 98.16L122.91 98.27L123.05 98.37L123.2 98.48L123.35 98.58L123.49 98.69L123.64 98.79L123.8 98.88L123.95 98.98L124.1 99.08L124.26 99.17L124.41 99.26L124.57 99.35L124.73 99.44L124.89 99.53L125.05 99.61L125.21 99.7L125.38 99.78L125.54 99.86L125.71 99.94L125.78 99.97L125.85 100.01L125.92 100.04L125.99 100.08L126.06 100.13L126.12 100.17L126.19 100.21L126.25 100.26L126.31 100.31L126.37 100.36L126.43 100.41L126.48 100.46L126.54 100.52L126.59 100.57L126.65 100.63L126.7 100.69L126.75 100.75L126.79 100.81L126.84 100.87L126.88 100.94L126.92 101L126.96 101.07L127 101.13L127.04 101.2L127.07 101.27L127.11 101.34L127.14 101.41L127.17 101.48L127.19 101.55L127.22 101.63L127.24 101.7L127.26 101.78L127.28 101.85L127.3 101.93L127.32 102.01L127.33 102.08L127.34 102.16L127.35 102.24L127.35 102.32L127.36 102.4L127.36 102.48L127.36 102.56L127.36 102.64L127.36 102.72L127.35 102.8L127.34 102.87L127.33 102.95L127.32 103.03L127.3 103.11L127.29 103.18L127.27 103.26L127.25 103.33L127.22 103.41L127.2 103.48L127.17 103.55L127.14 103.62L127.11 103.69L127.08 103.76L127.04 103.83L127.01 103.9L126.97 103.97L126.93 104.03L126.89 104.1L126.84 104.16L126.8 104.22L126.75 104.28L126.7 104.34L126.65 104.4L126.6 104.46L126.54 104.52L126.49 104.57L126.43 104.62L126.37 104.67L126.31 104.72L126.25 104.77L126.19 104.82L126.12 104.86L126.06 104.91L125.99 104.95L125.92 104.99L125.86 105.02L125.8 105.06L125.74 105.09L125.68 105.13L125.63 105.16L125.57 105.19L125.51 105.23L125.45 105.26L125.4 105.3L125.34 105.33L125.29 105.36L125.23 105.4L125.18 105.43L125.13 105.46L125.07 105.5L125.02 105.53L124.97 105.57L124.91 105.6L124.86 105.63L124.81 105.67L124.76 105.7L124.71 105.74L124.66 105.77L124.61 105.8L124.56 105.84L124.51 105.87L124.46 105.91L124.41 105.94L124.37 105.97L124.32 106.01L124.27 106.04L124.23 106.08L124.18 106.11L124.13 106.15L124.09 106.18L124.04 106.22L124 106.25L123.95 106.28L123.91 106.32L123.87 106.35L123.56 106.6L123.26 106.86L122.97 107.12L122.68 107.39L122.4 107.67L122.13 107.95L121.87 108.24L121.62 108.53L121.37 108.83L121.13 109.13L120.9 109.44L120.68 109.76L120.47 110.08L120.26 110.4L120.06 110.73L119.87 111.07L119.69 111.4L119.52 111.75L119.36 112.09L119.2 112.44L119.05 112.8L118.92 113.16L118.79 113.52L118.66 113.88L118.55 114.25L118.45 114.62L118.36 115L118.27 115.37L118.2 115.75L118.13 116.14L118.07 116.52L118.03 116.9L117.99 117.29L117.96 117.68L117.94 118.07L117.93 118.47L117.93 118.86L117.94 119.26L117.96 119.65L117.99 120.05L118 120.12L118 120.19L118 120.26L118 120.33L118 120.41L118 120.48L117.99 120.55L117.98 120.62L117.98 120.69L117.97 120.76L117.95 120.82L117.94 120.89L117.92 120.96L117.91 121.03L117.89 121.1L117.87 121.16L117.85 121.23L117.82 121.3L117.8 121.36L117.77 121.42L117.74 121.49L117.71 121.55L117.68 121.61L117.65 121.67L117.61 121.74L117.58 121.79L117.54 121.85L117.5 121.91L117.46 121.97L117.42 122.03L117.38 122.08L117.33 122.13L117.29 122.19L117.24 122.24L117.19 122.29L117.14 122.34L117.09 122.39L117.03 122.44L116.98 122.48L116.92 122.53L116.87 122.57L116.81 122.61L116.75 122.66L116.69 122.69L116.63 122.73L116.57 122.77L116.51 122.8L116.45 122.84L116.38 122.87L116.32 122.9L116.25 122.92L116.19 122.95L116.12 122.97L116.06 123L115.99 123.02L115.92 123.04L115.86 123.06L115.79 123.07L115.72 123.09L115.65 123.1L115.58 123.11L115.51 123.12L115.45 123.13L115.38 123.13L115.31 123.14L115.24 123.14L115.17 123.14L115.1 123.14L115.03 123.14L114.96 123.14L114.89 123.13L114.82 123.12L114.75 123.11L114.68 123.1L114.61 123.09L114.54 123.07L114.47 123.06L114.4 123.04L114.33 123.02L114.26 123L113.89 122.88L113.5 122.77L113.12 122.67L112.74 122.58L112.35 122.5L111.97 122.42L111.58 122.36L111.2 122.31L110.81 122.27L110.43 122.24L110.04 122.21L109.65 122.2L109.27 122.2L108.88 122.2L108.5 122.22L108.11 122.24L107.73 122.27L107.35 122.32L106.97 122.37L106.59 122.43L106.21 122.5L105.84 122.58L105.46 122.67L105.09 122.77L104.72 122.88L104.36 123L103.99 123.12L103.63 123.26L103.27 123.4L102.92 123.55L102.57 123.72L102.22 123.89L101.88 124.07L101.54 124.26L101.2 124.45L100.87 124.66L100.54 124.88L100.22 125.1L99.9 125.33L99.59 125.57L99.54 125.61L99.5 125.64L99.46 125.68L99.41 125.72L99.37 125.75L99.32 125.79L99.28 125.83L99.23 125.86L99.19 125.9L99.15 125.94L99.1 125.98L99.06 126.02L99.01 126.06L98.97 126.09L98.92 126.13L98.88 126.18L98.84 126.22L98.79 126.26L98.75 126.3L98.7 126.34L98.66 126.38L98.61 126.43L98.57 126.47L98.52 126.51L98.48 126.56L98.43 126.6L98.39 126.64L98.34 126.69L98.3 126.73L98.25 126.78L98.21 126.83L98.16 126.87L98.11 126.92L98.07 126.97L98.02 127.02L97.98 127.07L97.93 127.11L97.88 127.16L97.84 127.21L97.79 127.26L97.74 127.32L97.68 127.38L97.62 127.43L97.56 127.48L97.5 127.54L97.44 127.58L97.38 127.63L97.31 127.68L97.25 127.72L97.18 127.76L97.12 127.8L97.05 127.84L96.98 127.87L96.91 127.91L96.84 127.94L96.77 127.97L96.7 128L96.62 128.02L96.55 128.05L96.48 128.07L96.4 128.09L96.33 128.11L96.25 128.12L96.18 128.14L96.1 128.15L96.02 128.16L95.95 128.17L95.87 128.17L95.79 128.18L95.71 128.18L95.64 128.18L95.56 128.17L95.48 128.17L95.4 128.16L95.32 128.15L95.25 128.14L95.17 128.13L95.09 128.11L95.01 128.09L94.94 128.07L94.93 128.07L94.91 128.07L94.89 128.06L94.88 128.06L94.86 128.05L94.85 128.05L94.83 128.04L94.81 128.04L94.79 128.03L94.78 128.02L94.76 128.02L94.75 128.02L94.74 128.01L94.72 128L94.7 128L94.69 127.99L94.67 127.98L94.66 127.98L94.65 127.98L94.59 127.95L94.52 127.92L94.46 127.89L94.39 127.86L94.33 127.83L94.27 127.79L94.21 127.76L94.15 127.72L94.09 127.68L94.03 127.64L93.98 127.6L93.92 127.55L93.87 127.51L93.82 127.46L93.76 127.42L93.71 127.37L93.66 127.32L93.62 127.27L93.57 127.22L93.52 127.16L93.48 127.11L93.44 127.05L93.39 127L93.35 126.94L93.31 126.88L93.28 126.82L93.24 126.76L93.21 126.7L93.17 126.64L93.14 126.58L93.11 126.51L93.08 126.45L93.06 126.38L93.03 126.32L93.01 126.25L92.98 126.18L92.96 126.11L92.94 126.04L92.93 125.97L92.91 125.9L92.87 125.72L92.83 125.54L92.79 125.36L92.75 125.19L92.7 125.01L92.66 124.83L92.61 124.66L92.55 124.48L92.5 124.31L92.45 124.14L92.39 123.97L92.33 123.8L92.27 123.63L92.2 123.46L92.14 123.29L92.07 123.12L92 122.96L91.93 122.79L91.86 122.63L91.78 122.46L91.71 122.3L91.63 122.14L91.55 121.98L91.46 121.82L91.38 121.66L91.29 121.5L91.2 121.34L91.11 121.18L91.02 121.03L90.93 120.87L90.83 120.72L90.73 120.57L90.63 120.42L90.53 120.27L90.43 120.12L90.32 119.97L90.22 119.82L90.11 119.68L89.99 119.53L89.88 119.39L89.63 119.08L89.38 118.79L89.12 118.5L88.85 118.22L88.58 117.94L88.29 117.67L88 117.41L87.71 117.16L87.41 116.92L87.1 116.68L86.79 116.45L86.47 116.23L86.15 116.01L85.82 115.81L85.49 115.61L85.15 115.42L84.81 115.24L84.46 115.07L84.11 114.9L83.76 114.75L83.4 114.6L83.04 114.46L82.67 114.33L82.3 114.21L81.93 114.09L81.56 113.99L81.19 113.89L80.81 113.81L80.43 113.73L80.05 113.66L79.66 113.61L79.28 113.56L78.89 113.52L78.5 113.49L78.12 113.47L77.73 113.46L77.34 113.46L76.95 113.47L76.56 113.49L76.17 113.52L76.1 113.52L76.03 113.53L75.96 113.53L75.88 113.53L75.81 113.53L75.74 113.52L75.67 113.52L75.6 113.51L75.53 113.5L75.46 113.49L75.39 113.48L75.32 113.46L75.25 113.45L75.19 113.43L75.12 113.41L75.05 113.39L74.99 113.37L74.92 113.35L74.85 113.32L74.79 113.3L74.73 113.27L74.66 113.24L74.6 113.21L74.54 113.17L74.48 113.14L74.42 113.1L74.36 113.06L74.3 113.03L74.25 112.99L74.19 112.94L74.13 112.9L74.08 112.85L74.03 112.81L73.97 112.76L73.92 112.71L73.87 112.66L73.82 112.61L73.78 112.56L73.73 112.5L73.69 112.45L73.64 112.39L73.6 112.33L73.56 112.27L73.52 112.21L73.48 112.15L73.45 112.09L73.41 112.03L73.38 111.97L73.35 111.9L73.32 111.84L73.29 111.77L73.26 111.71L73.24 111.64L73.22 111.58L73.2 111.51L73.18 111.44L73.16 111.38L73.14 111.31L73.13 111.24L73.12 111.17L73.1 111.1L73.09 111.03L73.09 110.96L73.08 110.89L73.08 110.82L73.07 110.75L73.07 110.68L73.07 110.61L73.08 110.54L73.08 110.47L73.09 110.4L73.09 110.33L73.1 110.26L73.12 110.19L73.13 110.12L73.14 110.05L73.16 109.98L73.18 109.92L73.2 109.85L73.22 109.78L73.34 109.4L73.45 109.02L73.56 108.64L73.65 108.26L73.73 107.87L73.8 107.49L73.86 107.1L73.92 106.72L73.96 106.33L73.99 105.95L74.02 105.56L74.03 105.17L74.04 104.79L74.03 104.4L74.02 104.02L73.99 103.64L73.96 103.25L73.92 102.87L73.86 102.49L73.8 102.11L73.73 101.73L73.65 101.36L73.56 100.99L73.46 100.61L73.35 100.25L73.24 99.88L73.11 99.51L72.98 99.15L72.83 98.8L72.68 98.44L72.52 98.09L72.34 97.74L72.16 97.4L71.97 97.06L71.78 96.72L71.57 96.39L71.35 96.06L71.13 95.73L70.89 95.41L70.65 95.1L70.55 94.97L70.44 94.84L70.33 94.71L70.22 94.58L70.11 94.46L70 94.34L69.89 94.21L69.78 94.09L69.66 93.97L69.55 93.85L69.43 93.74L69.31 93.62L69.19 93.51L69.07 93.39L68.95 93.28L68.82 93.17L68.7 93.06L68.57 92.96L68.45 92.85L68.32 92.74L68.19 92.64L68.06 92.54L67.93 92.44L67.8 92.34L67.66 92.24L67.53 92.14L67.39 92.05L67.25 91.96L67.12 91.86L66.98 91.77L66.84 91.68L66.7 91.59L66.55 91.51L66.41 91.42L66.27 91.34L66.12 91.25L65.97 91.17L65.83 91.09L65.68 91.01L65.53 90.94L65.54 90.93L65.3 91L65.05 91.06L64.81 91.12L64.56 91.17L64.32 91.22L64.07 91.27L63.83 91.31L63.58 91.35L63.33 91.39L63.09 91.42L62.84 91.45L62.59 91.47L62.34 91.49L62.09 91.51L61.84 91.52L61.59 91.53L61.34 91.53L61.09 91.53L60.84 91.53L60.59 91.52L60.34 91.51L60.09 91.49L59.84 91.47L59.59 91.45L59.34 91.42L59.09 91.38L58.84 91.35L58.59 91.3L58.34 91.26L58.09 91.21L57.84 91.15L57.59 91.1L57.34 91.03L57.1 90.97L56.85 90.89L56.61 90.82L56.36 90.74L56.12 90.65L55.87 90.56L55.63 90.47L55.55 90.44L55.47 90.4L55.39 90.37L55.31 90.34L55.23 90.3L55.15 90.27L55.07 90.23L54.99 90.2L54.91 90.16L54.83 90.12L54.75 90.09L54.67 90.05L54.59 90.01L54.52 89.97L54.44 89.93L54.36 89.89L54.28 89.85L54.2 89.81L54.13 89.77L54.05 89.73L53.97 89.68L53.9 89.64L53.82 89.6L53.75 89.56L53.67 89.51L53.59 89.47L53.52 89.42L53.44 89.38L53.37 89.33L53.29 89.29L53.22 89.24L53.15 89.19L53.07 89.15L53 89.1L52.93 89.05L52.85 89L52.78 88.95L52.71 88.9L52.63 88.85L52.56 88.8L52.23 88.89L51.89 88.98L51.56 89.08L51.24 89.19L50.91 89.31L50.59 89.43L50.27 89.56L49.96 89.69L49.65 89.83L49.34 89.98L49.03 90.14L48.73 90.3L48.44 90.46L48.15 90.64L47.86 90.82L47.57 91L47.29 91.19L47.02 91.39L46.74 91.6L46.48 91.81L46.21 92.02L45.96 92.24L45.7 92.47L45.46 92.7L45.21 92.94L44.97 93.19L44.74 93.44L44.51 93.69L44.29 93.95L44.08 94.22L43.86 94.49L43.66 94.76L43.46 95.04L43.27 95.33L43.08 95.62L42.9 95.92L42.72 96.22L42.55 96.52L42.39 96.83L42.23 97.15L42.2 97.21L42.17 97.28L42.13 97.34L42.1 97.4L42.06 97.46L42.02 97.52L41.98 97.58L41.94 97.64L41.89 97.69L41.85 97.75L41.8 97.8L41.76 97.85L41.71 97.9L41.66 97.95L41.61 98L41.55 98.05L41.5 98.09L41.45 98.14L41.39 98.18L41.34 98.22L41.28 98.26L41.22 98.3L41.16 98.34L41.1 98.37L41.04 98.41L40.98 98.44L40.92 98.47L40.85 98.5L40.79 98.53L40.72 98.56L40.66 98.58L40.59 98.61L40.53 98.63L40.46 98.65L40.39 98.67L40.32 98.69L40.25 98.7L40.18 98.72L40.11 98.73L40.04 98.74L39.97 98.75L39.9 98.75L39.82 98.76L39.75 98.76L39.68 98.76L39.61 98.76L39.54 98.76L39.47 98.76L39.4 98.75L39.33 98.74L39.26 98.73L39.19 98.72L39.12 98.71L39.05 98.7L38.98 98.68L38.92 98.66L38.85 98.64L38.78 98.62L38.72 98.6L38.65 98.57L38.59 98.55L38.52 98.52L38.46 98.49L38.39 98.46L38.33 98.43L38.27 98.4L38.21 98.36L38.15 98.32L38.09 98.29L38.03 98.25L37.98 98.21L37.92 98.16L37.87 98.12L37.81 98.07L37.76 98.03L37.71 97.98L37.66 97.93L37.61 97.88L37.56 97.82L37.51 97.77L37.25 97.48L36.99 97.19L36.71 96.91L36.43 96.64L36.15 96.38L35.86 96.12L35.56 95.87L35.25 95.63L34.94 95.4L34.63 95.17L34.31 94.96L33.98 94.75L33.65 94.54L33.32 94.35L32.98 94.16L32.63 93.99L32.28 93.82L31.93 93.66L31.58 93.5L31.22 93.36L30.85 93.22L30.49 93.1L30.12 92.98L29.75 92.87L29.37 92.77L29 92.68L28.62 92.6L28.24 92.53L27.85 92.46L27.47 92.41L27.08 92.37L26.7 92.33L26.31 92.31L25.92 92.29L25.53 92.29L25.14 92.29L24.76 92.3L24.37 92.33L23.98 92.36L23.59 92.41L23.41 92.43L23.22 92.46L23.04 92.49L22.86 92.52L22.68 92.55L22.51 92.59L22.33 92.62L22.15 92.66L21.97 92.7L21.8 92.75L21.62 92.79L21.45 92.84L21.27 92.89L21.1 92.94L20.93 92.99L20.76 93.05L20.58 93.1L20.41 93.16L20.24 93.22L20.08 93.29L19.91 93.35L19.74 93.42L19.57 93.49L19.41 93.56L19.24 93.63L19.08 93.71L18.92 93.78L18.75 93.86L18.59 93.94L18.43 94.03L18.27 94.11L18.11 94.2L17.95 94.29L17.8 94.38L17.64 94.47L17.49 94.57L17.33 94.66L17.18 94.76L17.02 94.86L16.87 94.96L16.81 95L16.75 95.04L16.69 95.08L16.63 95.11L16.57 95.14L16.5 95.18L16.44 95.21L16.38 95.23L16.31 95.26L16.25 95.28L16.18 95.31L16.12 95.33L16.05 95.35L15.98 95.37L15.92 95.38L15.85 95.4L15.78 95.41L15.71 95.42L15.65 95.43L15.58 95.44L15.51 95.45L15.44 95.45L15.37 95.46L15.3 95.46L15.23 95.46L15.17 95.46L15.1 95.45L15.03 95.45L14.96 95.44L14.89 95.43L14.82 95.42L14.75 95.41L14.69 95.4L14.62 95.38L14.55 95.36L14.48 95.35L14.42 95.33L14.35 95.3L14.29 95.28L14.22 95.26L14.21 95.25L14.2 95.25L14.18 95.24L14.16 95.23L14.16 95.23L14.14 95.22L14.12 95.22L14.11 95.21L14.08 95.2L14.07 95.19L14.04 95.18L14.03 95.17L14.02 95.17L14 95.16L13.97 95.14L13.97 95.14L13.96 95.14L13.93 95.12L13.92 95.11L13.9 95.11L13.83 95.07L13.76 95.03L13.7 94.98L13.63 94.94L13.57 94.89L13.51 94.84L13.44 94.79L13.39 94.74L13.33 94.69L13.27 94.64L13.22 94.58L13.16 94.53L13.11 94.47L13.06 94.41L13.01 94.35L12.97 94.29L12.92 94.22L12.88 94.16L12.84 94.09L12.8 94.03L12.76 93.96L12.73 93.89L12.69 93.82L12.66 93.75L12.63 93.68L12.6 93.61L12.58 93.53L12.55 93.46L12.53 93.38L12.51 93.31L12.49 93.23L12.47 93.16L12.46 93.08L12.45 93L12.44 92.92L12.43 92.85L12.43 92.77L12.42 92.69L12.42 92.61L12.42 92.53L12.43 92.46L12.43 92.39L12.43 92.33L12.43 92.26L12.43 92.2L12.43 92.13L12.43 92.07L12.43 92.01L12.43 91.94L12.43 91.88L12.43 91.82L12.43 91.75L12.43 91.69L12.43 91.63L12.43 91.56L12.43 91.5L12.42 91.44L12.42 91.38L12.42 91.32L12.42 91.25L12.41 91.19L12.41 91.13L12.41 91.07L12.4 91.01L12.4 90.95L12.4 90.89L12.39 90.83L12.39 90.77L12.38 90.71L12.38 90.65L12.37 90.59L12.37 90.53L12.36 90.47L12.36 90.42L12.35 90.36L12.34 90.3L12.34 90.24L12.33 90.18L12.32 90.12L12.32 90.06L12.26 89.67L12.19 89.29L12.12 88.9L12.04 88.52L11.94 88.14L11.84 87.76L11.73 87.39L11.61 87.02L11.48 86.66L11.34 86.3L11.19 85.94L11.04 85.59L10.87 85.24L10.7 84.9L10.52 84.56L10.33 84.22L10.13 83.89L9.93 83.57L9.71 83.25L9.49 82.94L9.27 82.63L9.03 82.33L8.79 82.03L8.54 81.74L8.28 81.45L8.01 81.17L7.74 80.9L7.46 80.64L7.17 80.38L6.88 80.12L6.58 79.88L6.28 79.64L5.96 79.41L5.64 79.18L5.32 78.96L4.99 78.75L4.65 78.55L4.31 78.36L3.96 78.17L3.6 77.99L3.54 77.96L3.47 77.93L3.41 77.89L3.35 77.85L3.29 77.82L3.23 77.78L3.18 77.74L3.12 77.69L3.06 77.65L3.01 77.61L2.96 77.56L2.9 77.51L2.85 77.46L2.81 77.41L2.76 77.36L2.71 77.31L2.67 77.26L2.62 77.2L2.58 77.15L2.54 77.09L2.5 77.04L2.46 76.98L2.42 76.92L2.39 76.86L2.35 76.8L2.32 76.74L2.29 76.68L2.26 76.61L2.23 76.55L2.2 76.48L2.18 76.42L2.15 76.35L2.13 76.28L2.11 76.22L2.09 76.15L2.08 76.08L2.06 76.01L2.05 75.94L2.03 75.87L2.02 75.8L2.02 75.73L2.01 75.66L2 75.59L2 75.51L2 75.44L2 75.37L2 75.3L2.01 75.23L2.01 75.16L2.02 75.09L2.03 75.02L2.04 74.95L2.05 74.88L2.07 74.82L2.08 74.75L2.1 74.68L2.12 74.61L2.14 74.55L2.16 74.48L2.19 74.42L2.21 74.35L2.24 74.29L2.27 74.22L2.3 74.16L2.33 74.1L2.37 74.04L2.4 73.98L2.44 73.92L2.48 73.86L2.52 73.8L2.56 73.74L2.6 73.69L2.64 73.63L2.69 73.58L2.73 73.52L2.78 73.47L2.83 73.42L2.88 73.37L2.94 73.32L3.29 73.01L3.58 72.74L3.86 72.47L4.14 72.18L4.4 71.9L4.66 71.6L4.91 71.3L5.16 71L5.39 70.69L5.62 70.37L5.84 70.05L6.05 69.73L6.25 69.4L6.45 69.07L6.63 68.73L6.81 68.39L6.98 68.04L7.14 67.69L7.29 67.34L7.43 66.98L7.56 66.62L7.69 66.26L7.8 65.89L7.91 65.52L8.01 65.15L8.1 64.78L8.17 64.4L8.24 64.02L8.31 63.64L8.36 63.26L8.4 62.88L8.43 62.49L8.45 62.1L8.47 61.71L8.47 61.32L8.46 60.93L8.45 60.54L8.42 60.15L8.39 59.76L8.34 59.36L8.33 59.31L8.33 59.25L8.32 59.2L8.31 59.14L8.3 59.08L8.29 59.03L8.28 58.97L8.27 58.91L8.27 58.85L8.26 58.8L8.25 58.74L8.23 58.68L8.22 58.62L8.21 58.56L8.2 58.5L8.19 58.45L8.18 58.39L8.17 58.33L8.15 58.27L8.14 58.21L8.13 58.15L8.11 58.09L8.1 58.03L8.09 57.97L8.07 57.9L8.06 57.84L8.04 57.78L8.03 57.72L8.01 57.66L8 57.6L7.98 57.53L7.96 57.47L7.95 57.41L7.93 57.34L7.91 57.28L7.89 57.22L7.88 57.15L7.86 57.09L7.84 57.02L7.82 56.96L7.8 56.88L7.78 56.8L7.76 56.72L7.75 56.65L7.74 56.57L7.73 56.49L7.72 56.41L7.71 56.34L7.71 56.26L7.71 56.18L7.71 56.1L7.71 56.02L7.71 55.95L7.72 55.87L7.73 55.79L7.74 55.72L7.75 55.64L7.77 55.56L7.79 55.49L7.81 55.41L7.83 55.34L7.85 55.27L7.88 55.19L7.9 55.12L7.93 55.05L7.96 54.98L8 54.91L8.03 54.84L8.07 54.77L8.11 54.7L8.15 54.64L8.19 54.57L8.23 54.51L8.28 54.44L8.33 54.38L8.38 54.32L8.43 54.26L8.48 54.2L8.54 54.15L8.6 54.09L8.66 54.04L8.72 53.98L8.78 53.93L8.84 53.88L8.9 53.84L8.97 53.79L9.04 53.75L9.1 53.71L9.17 53.67L9.24 53.63L9.31 53.6L9.38 53.57L9.45 53.54L9.52 53.51L9.59 53.48L9.67 53.45L9.74 53.43L9.81 53.41L9.89 53.39L9.96 53.37L10.04 53.36L10.12 53.35L10.19 53.34L10.27 53.33L10.35 53.32L10.42 53.32L10.5 53.31L10.58 53.31L10.65 53.32L10.73 53.32L10.81 53.33L10.89 53.33L10.97 53.34L11.04 53.36L11.12 53.37L11.2 53.39L11.27 53.41L11.35 53.43L11.43 53.45L11.5 53.48L11.68 53.54L11.85 53.6L12.02 53.65L12.2 53.7L12.37 53.76L12.55 53.81L12.72 53.85L12.9 53.9L13.07 53.94L13.25 53.98L13.43 54.02L13.6 54.06L13.78 54.09L13.96 54.13L14.14 54.16L14.31 54.19L14.49 54.21L14.67 54.24L14.85 54.26L15.03 54.28L15.21 54.3L15.39 54.31L15.57 54.33L15.75 54.34L15.93 54.35L16.11 54.35L16.29 54.36L16.47 54.36L16.65 54.36L16.83 54.36L17.01 54.36L17.19 54.35L17.37 54.35L17.56 54.34L17.74 54.32L17.92 54.31L18.1 54.29L18.28 54.27L18.47 54.25L18.65 54.23L19.04 54.18L19.43 54.11L19.82 54.03L20.2 53.95L20.58 53.86L20.96 53.75L21.33 53.64L21.7 53.52L22.06 53.39L22.42 53.25L22.78 53.11L23.14 52.95L23.48 52.79L23.83 52.61L24.17 52.43L24.5 52.24L24.83 52.05L25.16 51.84L25.48 51.63L25.79 51.41L26.1 51.18L26.4 50.94L26.7 50.7L26.99 50.45L27.28 50.19L27.56 49.92L27.83 49.65L28.1 49.37L28.36 49.08L28.61 48.79L28.86 48.49L29.1 48.18L29.33 47.87L29.55 47.55L29.77 47.22L29.98 46.89L30.18 46.55L30.38 46.21L30.57 45.86L30.74 45.5L30.78 45.44L30.81 45.37L30.85 45.31L30.88 45.25L30.92 45.19L30.96 45.13L31 45.07L31.04 45.02L31.09 44.96L31.13 44.91L31.18 44.85L31.23 44.8L31.27 44.75L31.32 44.7L31.37 44.65L31.43 44.61L31.48 44.56L31.53 44.52L31.59 44.48L31.65 44.43L31.7 44.39L31.76 44.36L31.82 44.32L31.88 44.28L31.94 44.25L32 44.22L32.07 44.18L32.13 44.15L32.19 44.13L32.26 44.1L32.32 44.07L32.39 44.05L32.46 44.03L32.52 44.01L32.59 43.99L32.66 43.97L32.73 43.96L32.8 43.94L32.87 43.93L32.94 43.92L33.02 43.91L33.09 43.91L33.16 43.9L33.23 43.9L33.3 43.9L33.37 43.9L33.44 43.9L33.51 43.91L33.58 43.91L33.65 43.92L33.72 43.93L33.79 43.94L33.86 43.95L33.93 43.97L34 43.98L34.06 44L34.13 44.02L34.2 44.04L34.26 44.07L34.33 44.09L34.4 44.12L34.46 44.14L34.52 44.17L34.59 44.2L34.65 44.24L34.71 44.27L34.77 44.3L34.83 44.34L34.89 44.38L34.95 44.42L35 44.46L35.06 44.5L35.12 44.55L35.17 44.59L35.22 44.64L35.27 44.69L35.33 44.74L35.38 44.79L35.42 44.84L35.47 44.9L35.73 45.19L35.99 45.47L36.26 45.75L36.54 46.02L36.82 46.28L37.11 46.54L37.41 46.79L37.71 47.03L38.02 47.26L38.33 47.49L38.65 47.71L38.98 47.92L39.31 48.12L39.64 48.31L39.98 48.5L40.33 48.67L40.67 48.84L41.03 49L41.38 49.16L41.74 49.3L42.11 49.44L42.47 49.56L42.84 49.68L43.21 49.79L43.59 49.89L43.96 49.98L44.34 50.06L44.72 50.13L45.11 50.2L45.49 50.25L45.88 50.29L46.26 50.33L46.65 50.35L47.04 50.37L47.43 50.37L47.82 50.37L48.21 50.36L48.6 50.33L48.98 50.3L49.37 50.25L49.45 50.24L49.52 50.23L49.59 50.22L49.66 50.21L49.73 50.2L49.81 50.19L49.88 50.18L49.95 50.16L50.02 50.15L50.09 50.14L50.16 50.12L50.24 50.11L50.31 50.09L50.38 50.08L50.45 50.06L50.52 50.05L50.59 50.03L50.66 50.01L50.74 50L50.81 49.98L50.88 49.96L50.95 49.94L51.02 49.93L51.09 49.91L51.16 49.89L51.23 49.87L51.3 49.85L51.37 49.83L51.44 49.81L51.51 49.79L51.59 49.77L51.66 49.75L51.73 49.72L51.8 49.7L51.87 49.68L51.94 49.66L52.01 49.63L52.08 49.61L52.15 49.59L52.22 49.57L52.26 49.43L52.3 49.3L52.34 49.17L52.38 49.03L52.42 48.9L52.47 48.77L52.51 48.64L52.56 48.5L52.61 48.37L52.66 48.24L52.71 48.11L52.76 47.98L52.81 47.85L52.87 47.72L52.92 47.59L52.98 47.46L53.03 47.33L53.09 47.2L53.15 47.07L53.21 46.94L53.27 46.81L53.34 46.69L53.4 46.56L53.46 46.43L53.53 46.31L53.6 46.18L53.67 46.05L53.74 45.93L53.81 45.8L53.88 45.68L53.96 45.55L54.03 45.43L54.11 45.31L54.19 45.18L54.27 45.06L54.35 44.94L54.43 44.82L54.51 44.7L54.6 44.58L54.68 44.46L54.85 44.23L55.03 44L55.2 43.78L55.38 43.56L55.56 43.34L55.75 43.13L55.94 42.93L56.13 42.72L56.32 42.52L56.52 42.33L56.72 42.13L56.92 41.95L57.12 41.76L57.33 41.58L57.54 41.4L57.75 41.23L57.97 41.06L58.19 40.9L58.4 40.74L58.63 40.58L58.85 40.43L59.08 40.28L59.3 40.13L59.53 39.99L59.77 39.85L60 39.72L60.24 39.59L60.47 39.46L60.71 39.34L60.95 39.22L61.2 39.11L61.44 39L61.69 38.9L61.93 38.8L62.18 38.7L62.43 38.61L62.68 38.52L62.93 38.43L63.19 38.35L63.44 38.28L63.49 37.97L63.53 37.67L63.57 37.37L63.6 37.07L63.63 36.76L63.65 36.46L63.66 36.15L63.67 35.85L63.67 35.55L63.67 35.24L63.66 34.94L63.64 34.64L63.62 34.33L63.59 34.03L63.56 33.73L63.52 33.43L63.48 33.13L63.43 32.83L63.37 32.53L63.31 32.23L63.24 31.94L63.17 31.64L63.09 31.35L63 31.06L62.91 30.77L62.82 30.48L62.71 30.19L62.61 29.9L62.49 29.62L62.37 29.34L62.25 29.06L62.11 28.78L61.98 28.5L61.83 28.23L61.68 27.95L61.53 27.68L61.37 27.42L61.2 27.15L61.03 26.89L60.85 26.63L60.81 26.57L60.77 26.51L60.73 26.45L60.7 26.39L60.66 26.33L60.63 26.26L60.6 26.2L60.57 26.13L60.55 26.07L60.52 26L60.5 25.94L60.47 25.87L60.45 25.8L60.43 25.74L60.42 25.67L60.4 25.6L60.39 25.53L60.37 25.46L60.36 25.39L60.35 25.32L60.35 25.26L60.34 25.19L60.34 25.12L60.33 25.05L60.33 24.98L60.34 24.91L60.34 24.84L60.34 24.77L60.35 24.7L60.36 24.63L60.37 24.56L60.38 24.49L60.39 24.42L60.41 24.35L60.43 24.28L60.44 24.21L60.46 24.14L60.49 24.07L60.51 24.01L60.54 23.94L60.56 23.87L60.59 23.81L60.62 23.74L60.66 23.68L60.69 23.62L60.72 23.56L60.76 23.5L60.8 23.44L60.84 23.38L60.88 23.32L60.92 23.26L60.96 23.21L61.01 23.15L61.06 23.1L61.1 23.05L61.15 23L61.2 22.95L61.25 22.9L61.3 22.86L61.36 22.81L61.41 22.77L61.47 22.72L61.52 22.68L61.58 22.64L61.64 22.6L61.7 22.57L61.76 22.53L61.82 22.5L61.88 22.46L61.94 22.43L62.01 22.4L62.07 22.37L62.14 22.35L62.2 22.32L62.27 22.3L62.34 22.28L62.41 22.26L62.48 22.24L62.54 22.22L62.61 22.2L63 22.12L63.39 22.03L63.77 21.92L64.15 21.81L64.52 21.69L64.89 21.56L65.25 21.42L65.61 21.28L65.97 21.12L66.32 20.96L66.66 20.79L67.01 20.6L67.34 20.42L67.67 20.22L68 20.01L68.32 19.8L68.63 19.58L68.94 19.35L69.25 19.12L69.54 18.88L69.83 18.63L70.12 18.37L70.4 18.11L70.67 17.83L70.94 17.56L71.19 17.27L71.45 16.98L71.69 16.68L71.93 16.38L72.16 16.07L72.38 15.75L72.6 15.43L72.81 15.1L73.01 14.77L73.2 14.43L73.38 14.08L73.56 13.73L73.73 13.37L73.89 13.01L74.04 12.64L74.11 12.46L74.17 12.29L74.24 12.1L74.3 11.92L74.36 11.74L74.42 11.56L74.48 11.38L74.53 11.2L74.58 11.01L74.63 10.83L74.68 10.65L74.72 10.46L74.77 10.28L74.81 10.09L74.84 9.91L74.88 9.72L74.91 9.53L74.94 9.35L74.97 9.16L75 8.97L75.02 8.78L75.04 8.6L75.06 8.41L75.08 8.22L75.09 8.03L75.1 7.84L75.11 7.65L75.12 7.46L75.13 7.27L75.13 7.08L75.13 6.88L75.13 6.69L75.12 6.5L75.12 6.31L75.11 6.12L75.1 5.92L75.09 5.73L75.07 5.53L75.05 5.34L75.03 5.15L75.02 5.07L75.02 4.99L75.02 4.91L75.01 4.83L75.02 4.75L75.02 4.67L75.02 4.6L75.03 4.52L75.04 4.44L75.05 4.37L75.07 4.29L75.08 4.21L75.1 4.14L75.12 4.06L75.14 3.99L75.17 3.92L75.19 3.84L75.22 3.77L75.25 3.7L75.28 3.63L75.32 3.56L75.35 3.49L75.39 3.43L75.43 3.36L75.47 3.3L75.51 3.23L75.55 3.17L75.6 3.11L75.65 3.05L75.7 2.99L75.75 2.93L75.8 2.87L75.86 2.82L75.91 2.76L75.97 2.71L76.03 2.66L76.09 2.61L76.15 2.56L76.22 2.51L76.28 2.47L76.35 2.42L76.42 2.38L76.49 2.34L76.55 2.31L76.62 2.27L76.7 2.24L76.77 2.21L76.84 2.18L76.91 2.15L76.99 2.13L77.06 2.1L77.13 2.08L77.21 2.06L77.28 2.05L77.36 2.03L77.43 2.02L77.51 2.01L77.59 2L77.66 1.99L77.74 1.99L77.82 1.99L77.89 1.99L77.97 1.99L78.05 1.99L78.12 2L78.2 2.01L78.28 2.02L78.35 2.03L78.43 2.04L78.5 2.06L78.58 2.08L78.65 2.1L78.73 2.12L78.8 2.15L78.88 2.18L78.95 2.2L79.02 2.24L79.09 2.27L79.16 2.31L79.24 2.34L79.27 2.36L79.31 2.38L79.34 2.4L79.38 2.42L79.41 2.44L79.45 2.46L79.49 2.48L79.52 2.5L79.56 2.52L79.59 2.53L79.63 2.55L79.66 2.57L79.7 2.59L79.74 2.61L79.77 2.63L79.81 2.65L79.85 2.66L79.88 2.68L79.92 2.7L79.96 2.72L79.99 2.73L80.03 2.75L80.07 2.77L80.1 2.79L80.14 2.8L80.18 2.82L80.21 2.84L80.25 2.86L80.29 2.87L80.33 2.89L80.36 2.91L80.4 2.92L80.44 2.94L80.48 2.95L80.51 2.97L80.55 2.99L80.59 3L80.63 3.02L80.67 3.03L80.71 3.05L81.12 3.21L81.54 3.35L81.95 3.49L82.37 3.61L82.79 3.72L83.21 3.82L83.64 3.9L84.06 3.98L84.48 4.04L84.91 4.09L85.33 4.13L85.75 4.16L86.18 4.18L86.6 4.19L87.02 4.18L87.44 4.16L87.86 4.14L88.28 4.1L88.7 4.05L89.11 3.99L89.53 3.91L89.94 3.83L90.35 3.74L90.75 3.63L91.16 3.51L91.56 3.39L91.96 3.25L92.35 3.1L92.74 2.94L93.13 2.77L93.51 2.59L93.89 2.4L94.26 2.19L94.63 1.98L94.99 1.76L95.35 1.53L95.71 1.28L96.05 1.03L96.4 0.76L96.73 0.49L96.79 0.44L96.86 0.39L96.92 0.35L96.98 0.3L97.05 0.26L97.11 0.22L97.18 0.18L97.25 0.14L97.32 0.11L97.39 0.08L97.46 0.05L97.53 0.02L97.6 -0.01L97.67 -0.03L97.74 -0.06L97.81 -0.08L97.89 -0.1L97.96 -0.11L98.04 -0.13L98.11 -0.14L98.19 -0.15L98.26 -0.16L98.34 -0.17L98.41 -0.17L98.49 -0.18L98.56 -0.18L98.64 -0.18L98.71 -0.17ZM98.3 76.91L98.29 76.94L98.27 76.97L98.25 77L98.23 77.03L98.22 77.06L98.2 77.09L98.18 77.12L98.17 77.15L98.15 77.18L98.13 77.21L98.12 77.24L98.1 77.27L98.07 77.33L98.05 77.36L98.03 77.39L98.02 77.42L98 77.45L97.98 77.48L97.97 77.51L97.95 77.54L97.93 77.57L97.92 77.6L97.9 77.63L97.88 77.66L97.86 77.69L97.85 77.72L97.83 77.75L97.81 77.78L97.79 77.81L97.77 77.84L97.76 77.87L97.74 77.9L97.72 77.93L97.7 77.95L97.68 77.98L97.66 78.01L97.64 78.04L97.48 78.25L97.33 78.45L97.17 78.66L97.01 78.86L96.84 79.05L96.67 79.25L96.51 79.44L96.33 79.62L96.16 79.81L95.98 79.99L95.8 80.16L95.62 80.34L95.44 80.51L95.25 80.68L95.06 80.84L94.87 81L94.68 81.16L94.49 81.32L94.29 81.47L94.09 81.62L93.89 81.76L93.69 81.9L93.49 82.04L93.28 82.18L93.08 82.31L92.87 82.44L92.66 82.56L92.45 82.69L92.23 82.81L92.02 82.92L91.8 83.03L91.58 83.14L91.36 83.25L91.14 83.35L90.92 83.45L90.7 83.55L90.47 83.64L90.25 83.73L90.02 83.82L89.8 83.9L107.48 106.23L107.55 106.32L107.62 106.41L107.68 106.51L107.74 106.61L107.79 106.71L107.84 106.81L107.88 106.92L107.92 107.02L107.96 107.13L107.99 107.23L108.02 107.34L108.04 107.45L108.06 107.56L108.08 107.66L108.09 107.77L108.09 107.88L108.1 107.99L108.09 108.1L108.09 108.21L108.08 108.32L108.06 108.43L108.04 108.54L108.02 108.64L107.99 108.75L107.96 108.85L107.93 108.96L107.89 109.06L107.84 109.16L107.8 109.26L107.75 109.36L107.69 109.46L107.63 109.55L107.57 109.64L107.5 109.73L107.43 109.82L107.35 109.91L107.28 109.99L107.19 110.07L107.11 110.15L107.02 110.22L106.95 110.27L106.89 110.32L106.83 110.36L106.76 110.4L106.7 110.44L106.63 110.48L106.56 110.52L106.49 110.55L106.42 110.59L106.36 110.62L106.29 110.64L106.22 110.67L106.15 110.7L106.07 110.72L106 110.74L105.93 110.76L105.86 110.77L105.79 110.79L105.71 110.8L105.64 110.81L105.57 110.82L105.49 110.83L105.42 110.83L105.35 110.84L105.27 110.84L105.2 110.84L105.13 110.84L105.05 110.83L104.98 110.83L104.91 110.82L104.84 110.81L104.76 110.8L104.69 110.78L104.62 110.77L104.55 110.75L104.48 110.73L104.41 110.71L104.34 110.69L104.27 110.66L104.2 110.64L104.16 110.62L104.13 110.61L104.1 110.6L104.06 110.58L104.03 110.57L104 110.55L103.97 110.53L103.93 110.52L103.9 110.5L103.87 110.48L103.84 110.46L103.8 110.45L103.77 110.43L103.74 110.41L103.71 110.39L103.68 110.37L103.65 110.35L103.62 110.33L103.59 110.31L103.56 110.28L103.53 110.26L103.5 110.24L103.47 110.22L103.44 110.19L103.41 110.17L103.38 110.14L103.36 110.12L103.33 110.09L103.3 110.07L103.27 110.04L103.25 110.02L103.22 109.99L103.19 109.96L103.17 109.93L103.14 109.91L103.12 109.88L103.09 109.85L103.07 109.82L103.04 109.79L103.02 109.76L83.22 84.76L83.11 84.75L83 84.74L82.89 84.73L82.78 84.72L82.67 84.71L82.56 84.69L82.45 84.68L82.34 84.67L82.23 84.65L82.12 84.64L82.01 84.62L81.89 84.6L81.78 84.58L81.67 84.57L81.56 84.55L81.45 84.53L81.34 84.5L81.23 84.48L81.12 84.46L81.01 84.44L80.9 84.41L80.79 84.39L80.68 84.36L80.58 84.34L80.47 84.31L80.36 84.28L80.25 84.25L80.14 84.22L80.03 84.19L79.92 84.16L79.81 84.12L79.7 84.09L79.6 84.05L79.49 84.02L79.38 83.98L79.27 83.94L79.16 83.9L79.06 83.86L78.95 83.82L78.84 83.78L78.77 83.75L78.69 83.72L78.61 83.69L78.54 83.66L78.46 83.62L78.38 83.59L78.31 83.56L78.23 83.52L78.16 83.49L78.08 83.45L78.01 83.42L77.93 83.38L77.86 83.34L77.78 83.31L77.71 83.27L77.63 83.23L77.56 83.19L77.49 83.15L77.41 83.11L77.34 83.07L77.27 83.03L77.19 82.99L77.12 82.95L77.05 82.91L76.98 82.87L76.91 82.83L76.83 82.79L76.76 82.74L76.69 82.7L76.62 82.66L76.55 82.61L76.48 82.57L76.41 82.52L76.34 82.48L76.27 82.43L76.2 82.39L76.13 82.34L76.06 82.3L75.99 82.25L75.92 82.2L75.89 82.27L75.85 82.33L75.82 82.4L75.79 82.46L75.76 82.53L75.72 82.59L75.69 82.66L75.66 82.72L75.62 82.79L75.59 82.85L75.55 82.91L75.52 82.98L75.49 83.04L75.45 83.11L75.41 83.17L75.38 83.23L75.34 83.3L75.31 83.36L75.27 83.43L75.23 83.49L75.19 83.55L75.16 83.62L75.12 83.68L75.08 83.74L75.04 83.8L75 83.87L74.96 83.93L74.92 83.99L74.88 84.05L74.84 84.12L74.8 84.18L74.76 84.24L74.72 84.3L74.68 84.36L74.63 84.43L74.59 84.49L74.55 84.55L74.51 84.61L74.46 84.67L74.42 84.73L74.35 84.82L74.28 84.91L74.22 85L74.15 85.09L74.08 85.18L74.01 85.27L73.94 85.36L73.86 85.45L73.79 85.53L73.72 85.62L73.65 85.7L73.57 85.79L73.5 85.87L73.42 85.95L73.35 86.04L73.27 86.12L73.2 86.2L73.12 86.28L73.04 86.36L72.97 86.44L72.89 86.52L72.81 86.6L72.73 86.67L72.65 86.75L72.57 86.83L72.49 86.9L72.41 86.98L72.33 87.05L72.25 87.13L72.17 87.2L72.09 87.28L72 87.35L71.92 87.42L71.84 87.49L71.75 87.56L71.67 87.63L71.59 87.7L71.5 87.77L71.42 87.84L71.33 87.91L71.44 87.99L71.54 88.07L71.65 88.15L71.75 88.24L71.85 88.32L71.96 88.4L72.06 88.49L72.16 88.57L72.26 88.66L72.36 88.74L72.46 88.83L72.56 88.91L72.66 89L72.76 89.09L72.86 89.18L72.96 89.27L73.05 89.36L73.15 89.45L73.25 89.54L73.34 89.63L73.44 89.72L73.53 89.81L73.62 89.9L73.72 90L73.81 90.09L73.9 90.19L73.99 90.28L74.08 90.38L74.17 90.47L74.26 90.57L74.35 90.67L74.44 90.77L74.52 90.86L74.61 90.96L74.69 91.06L74.78 91.16L74.86 91.26L74.95 91.37L75.03 91.47L75.11 91.57L75.38 91.92L75.65 92.28L75.91 92.64L76.15 93L76.39 93.37L76.63 93.74L76.85 94.12L77.07 94.5L77.27 94.88L77.47 95.27L77.66 95.66L77.85 96.06L78.02 96.45L78.19 96.85L78.34 97.25L78.49 97.66L78.63 98.07L78.77 98.48L78.89 98.89L79 99.3L79.11 99.72L79.21 100.14L79.3 100.56L79.38 100.98L79.46 101.4L79.52 101.83L79.58 102.25L79.62 102.68L79.66 103.11L79.69 103.54L79.71 103.97L79.72 104.4L79.73 104.83L79.72 105.26L79.71 105.69L79.69 106.13L79.65 106.56L79.61 106.99L79.57 107.42L79.51 107.85L79.66 107.87L79.82 107.88L79.97 107.9L80.12 107.92L80.28 107.94L80.43 107.96L80.58 107.98L80.74 108L80.89 108.02L81.04 108.05L81.2 108.07L81.35 108.1L81.5 108.12L81.65 108.15L81.8 108.18L81.96 108.21L82.11 108.25L82.26 108.28L82.41 108.31L82.56 108.35L82.71 108.38L82.86 108.42L83.01 108.46L83.16 108.5L83.31 108.54L83.46 108.58L83.61 108.62L83.75 108.67L83.9 108.71L84.05 108.76L84.2 108.8L84.34 108.85L84.49 108.9L84.64 108.95L84.78 109L84.93 109.05L85.07 109.11L85.22 109.16L85.36 109.22L85.5 109.27L85.76 109.38L86.02 109.48L86.27 109.6L86.53 109.71L86.78 109.83L87.03 109.95L87.28 110.07L87.53 110.2L87.77 110.33L88.02 110.47L88.26 110.6L88.5 110.74L88.74 110.89L88.97 111.03L89.21 111.18L89.44 111.34L89.67 111.49L89.9 111.65L90.12 111.81L90.35 111.98L90.57 112.14L90.79 112.32L91.01 112.49L91.22 112.66L91.44 112.84L91.65 113.03L91.86 113.21L92.06 113.4L92.27 113.59L92.47 113.78L92.67 113.98L92.86 114.17L93.06 114.38L93.25 114.58L93.44 114.78L93.62 114.99L93.81 115.2L93.99 115.42L94.17 115.63L94.34 115.85L94.43 115.96L94.51 116.06L94.59 116.17L94.67 116.28L94.75 116.38L94.83 116.49L94.91 116.6L94.99 116.71L95.06 116.81L95.14 116.92L95.21 117.03L95.29 117.14L95.36 117.25L95.44 117.36L95.51 117.47L95.58 117.58L95.65 117.69L95.72 117.8L95.79 117.92L95.86 118.03L95.93 118.14L96 118.26L96.06 118.37L96.13 118.48L96.2 118.6L96.26 118.71L96.32 118.83L96.39 118.94L96.45 119.06L96.51 119.17L96.57 119.29L96.63 119.41L96.69 119.53L96.75 119.64L96.81 119.76L96.86 119.88L96.92 120L96.97 120.12L97.03 120.24L97.08 120.36L97.42 120.13L97.76 119.9L98.1 119.69L98.45 119.48L98.8 119.27L99.15 119.08L99.51 118.89L99.87 118.71L100.23 118.53L100.6 118.36L100.96 118.2L101.33 118.05L101.71 117.91L102.08 117.77L102.46 117.63L102.84 117.51L103.22 117.39L103.6 117.28L103.99 117.18L104.38 117.08L104.77 117L105.16 116.91L105.55 116.84L105.94 116.77L106.33 116.72L106.73 116.66L107.13 116.62L107.52 116.58L107.92 116.55L108.32 116.53L108.72 116.52L109.12 116.51L109.52 116.51L109.92 116.52L110.32 116.53L110.72 116.56L111.12 116.59L111.52 116.63L111.93 116.67L112.33 116.73L112.37 116.32L112.41 115.92L112.47 115.52L112.53 115.13L112.6 114.73L112.68 114.34L112.76 113.94L112.85 113.55L112.95 113.17L113.06 112.78L113.17 112.4L113.29 112.02L113.42 111.64L113.55 111.26L113.69 110.89L113.84 110.52L113.99 110.15L114.16 109.79L114.32 109.43L114.5 109.07L114.68 108.71L114.87 108.36L115.06 108.01L115.27 107.67L115.47 107.33L115.69 106.99L115.91 106.66L116.14 106.33L116.37 106.01L116.61 105.68L116.86 105.37L117.11 105.06L117.37 104.75L117.63 104.44L117.91 104.14L118.18 103.85L118.47 103.56L118.76 103.28L119.05 103L119.35 102.72L119.25 102.64L119.14 102.56L119.04 102.48L118.94 102.4L118.84 102.32L118.74 102.23L118.63 102.15L118.53 102.06L118.43 101.98L118.33 101.89L118.24 101.81L118.14 101.72L118.04 101.63L117.94 101.54L117.84 101.46L117.75 101.37L117.65 101.28L117.56 101.18L117.46 101.09L117.37 101L117.27 100.91L117.18 100.81L117.09 100.72L117 100.63L116.9 100.53L116.81 100.43L116.72 100.34L116.63 100.24L116.54 100.14L116.45 100.04L116.37 99.94L116.28 99.84L116.19 99.74L116.1 99.64L116.02 99.54L115.93 99.44L115.85 99.34L115.76 99.23L115.68 99.13L115.59 99.02L115.32 98.67L115.06 98.32L114.8 97.96L114.56 97.6L114.32 97.23L114.08 96.86L113.86 96.48L113.65 96.1L113.44 95.72L113.24 95.33L113.05 94.94L112.87 94.55L112.69 94.15L112.53 93.75L112.37 93.35L112.22 92.95L112.08 92.54L111.95 92.13L111.83 91.72L111.71 91.3L111.6 90.89L111.5 90.47L111.41 90.05L111.33 89.63L111.26 89.2L111.19 88.78L111.14 88.35L111.09 87.92L111.05 87.49L111.02 87.06L111 86.63L110.99 86.2L110.98 85.77L110.99 85.34L111 84.91L111.02 84.47L111.05 84.04L111.09 83.61L111.14 83.17L111.2 82.74L110.84 82.71L110.48 82.67L110.12 82.62L109.77 82.56L109.41 82.5L109.06 82.44L108.71 82.36L108.35 82.29L108 82.2L107.66 82.11L107.31 82.02L106.96 81.91L106.62 81.81L106.28 81.69L105.94 81.57L105.6 81.45L105.27 81.32L104.93 81.18L104.6 81.04L104.27 80.89L103.95 80.74L103.63 80.58L103.3 80.42L102.99 80.25L102.67 80.07L102.36 79.89L102.05 79.71L101.74 79.52L101.44 79.32L101.14 79.12L100.84 78.92L100.55 78.71L100.26 78.5L99.97 78.28L99.69 78.05L99.41 77.82L99.14 77.59L98.87 77.35L98.6 77.11L98.33 76.86L98.34 76.85L98.32 76.88L98.3 76.91ZM33.35 52L33.07 52.34L32.78 52.68L32.48 53.01L32.18 53.34L31.88 53.66L31.56 53.97L31.24 54.28L30.92 54.58L30.59 54.87L30.25 55.16L29.91 55.43L29.56 55.71L29.21 55.97L28.85 56.23L28.48 56.47L28.11 56.71L27.74 56.95L27.36 57.17L26.98 57.39L26.59 57.6L26.2 57.8L25.8 58L25.4 58.18L24.99 58.36L24.58 58.53L24.17 58.69L23.75 58.84L23.33 58.99L22.9 59.12L22.47 59.25L22.04 59.37L21.6 59.47L21.16 59.57L20.72 59.66L20.28 59.75L19.83 59.82L19.38 59.88L19.24 59.9L19.11 59.92L18.97 59.93L18.83 59.95L18.7 59.96L18.56 59.97L18.43 59.98L18.29 60L18.16 60.01L18.02 60.01L17.88 60.02L17.75 60.03L17.61 60.04L17.48 60.04L17.34 60.05L17.21 60.05L17.07 60.06L16.94 60.06L16.8 60.06L16.67 60.06L16.53 60.06L16.4 60.06L16.26 60.06L16.13 60.06L15.99 60.05L15.86 60.05L15.72 60.04L15.59 60.04L15.45 60.03L15.32 60.02L15.18 60.01L15.05 60L14.92 59.99L14.78 59.98L14.65 59.97L14.51 59.96L14.38 59.94L14.25 59.93L14.11 59.91L14.14 60.33L14.16 60.74L14.16 61.16L14.16 61.58L14.16 61.99L14.14 62.41L14.12 62.82L14.08 63.23L14.04 63.64L14 64.05L13.94 64.46L13.88 64.86L13.81 65.27L13.73 65.67L13.64 66.07L13.55 66.47L13.45 66.86L13.34 67.26L13.22 67.65L13.1 68.04L12.97 68.43L12.83 68.81L12.68 69.19L12.53 69.57L12.37 69.95L12.2 70.32L12.02 70.69L11.84 71.06L11.65 71.42L11.46 71.78L11.25 72.13L11.04 72.49L10.82 72.84L10.6 73.18L10.37 73.52L10.13 73.86L9.88 74.19L9.63 74.52L9.37 74.84L9.71 75.09L10.03 75.35L10.36 75.6L10.67 75.87L10.98 76.14L11.29 76.42L11.59 76.7L11.88 76.99L12.17 77.28L12.45 77.58L12.73 77.88L13 78.19L13.26 78.5L13.52 78.82L13.77 79.14L14.01 79.47L14.25 79.8L14.48 80.13L14.71 80.47L14.93 80.82L15.14 81.17L15.35 81.52L15.55 81.88L15.74 82.24L15.92 82.61L16.1 82.98L16.27 83.35L16.44 83.73L16.59 84.11L16.74 84.49L16.89 84.88L17.02 85.27L17.15 85.66L17.27 86.06L17.38 86.45L17.49 86.86L17.59 87.26L17.68 87.67L17.76 88.08L17.88 88.03L18.01 87.98L18.14 87.93L18.26 87.89L18.39 87.84L18.51 87.8L18.64 87.75L18.77 87.71L18.9 87.67L19.02 87.62L19.15 87.58L19.28 87.54L19.41 87.5L19.54 87.46L19.67 87.43L19.8 87.39L19.93 87.35L20.06 87.32L20.19 87.28L20.32 87.25L20.45 87.22L20.58 87.18L20.71 87.15L20.85 87.12L20.98 87.09L21.11 87.06L21.24 87.04L21.38 87.01L21.51 86.98L21.64 86.96L21.78 86.93L21.91 86.91L22.05 86.89L22.18 86.86L22.32 86.84L22.45 86.82L22.59 86.8L22.72 86.78L22.86 86.76L23.3 86.71L23.75 86.67L24.19 86.64L24.64 86.61L25.08 86.6L25.53 86.59L25.97 86.6L26.42 86.61L26.86 86.64L27.31 86.67L27.75 86.71L28.19 86.76L28.63 86.82L29.07 86.89L29.51 86.97L29.94 87.06L30.37 87.15L30.81 87.26L31.23 87.37L31.66 87.49L32.08 87.62L32.51 87.76L32.92 87.91L33.34 88.06L33.75 88.23L34.16 88.4L34.56 88.58L34.96 88.77L35.36 88.97L35.75 89.17L36.14 89.39L36.53 89.61L36.91 89.84L37.28 90.08L37.65 90.32L38.02 90.58L38.38 90.84L38.73 91.11L39.08 91.38L39.26 91.14L39.44 90.89L39.63 90.65L39.82 90.42L40.02 90.18L40.21 89.95L40.41 89.73L40.62 89.5L40.82 89.28L41.03 89.06L41.25 88.85L41.46 88.64L41.68 88.43L41.9 88.23L42.13 88.03L42.36 87.83L42.59 87.63L42.82 87.44L43.05 87.25L43.29 87.07L43.53 86.89L43.78 86.71L44.02 86.54L44.27 86.37L44.52 86.2L44.77 86.04L45.03 85.88L45.29 85.72L45.55 85.57L45.81 85.42L46.07 85.27L46.34 85.13L46.61 84.99L46.88 84.86L47.15 84.73L47.43 84.6L47.7 84.47L47.98 84.35L48.26 84.24L48.18 84.11L48.11 83.98L48.03 83.85L47.96 83.71L47.88 83.58L47.81 83.45L47.74 83.31L47.67 83.18L47.61 83.04L47.54 82.9L47.48 82.77L47.41 82.63L47.35 82.49L47.29 82.35L47.23 82.21L47.17 82.07L47.12 81.93L47.06 81.78L47.01 81.64L46.95 81.5L46.9 81.35L46.85 81.21L46.8 81.06L46.76 80.92L46.71 80.77L46.67 80.62L46.62 80.47L46.58 80.32L46.54 80.18L46.5 80.03L46.47 79.87L46.43 79.72L46.4 79.57L46.36 79.42L46.33 79.27L46.3 79.11L46.27 78.96L46.25 78.81L46.22 78.65L46.2 78.5L46.18 78.35L46.16 78.2L46.14 78.04L46.12 77.89L46.11 77.74L46.09 77.59L46.08 77.44L46.07 77.29L46.06 77.13L46.05 76.98L46.04 76.83L46.04 76.68L46.04 76.53L46.03 76.38L46.03 76.23L46.04 76.08L46.04 75.93L46.04 75.78L46.05 75.62L46.05 75.47L46.06 75.32L46.07 75.17L46.08 75.02L46.1 74.87L46.11 74.72L46.12 74.57L46.14 74.42L46.16 74.27L46.18 74.13L46.2 73.98L46.22 73.83L46.24 73.68L46.26 73.53L46.29 73.38L46.32 73.23L46.34 73.09L46.37 72.94L46.4 72.79L20.87 76.1L20.83 76.11L20.79 76.11L20.76 76.12L20.72 76.12L20.68 76.12L20.64 76.12L20.61 76.13L20.57 76.13L20.53 76.13L20.49 76.13L20.46 76.13L20.42 76.13L20.38 76.12L20.34 76.12L20.31 76.12L20.27 76.12L20.23 76.11L20.2 76.11L20.16 76.11L20.12 76.1L20.09 76.1L20.05 76.09L20.01 76.08L19.98 76.08L19.94 76.07L19.91 76.06L19.87 76.06L19.84 76.05L19.8 76.04L19.77 76.03L19.73 76.02L19.7 76.01L19.66 76L19.63 75.99L19.59 75.98L19.56 75.97L19.53 75.95L19.49 75.94L19.46 75.93L19.39 75.9L19.32 75.87L19.25 75.83L19.18 75.8L19.11 75.76L19.05 75.72L18.98 75.68L18.92 75.64L18.85 75.6L18.79 75.55L18.73 75.51L18.67 75.46L18.62 75.41L18.56 75.36L18.5 75.3L18.45 75.25L18.4 75.19L18.35 75.14L18.3 75.08L18.25 75.02L18.2 74.96L18.16 74.89L18.12 74.83L18.08 74.76L18.04 74.7L18 74.63L17.96 74.56L17.93 74.49L17.9 74.42L17.87 74.34L17.84 74.27L17.81 74.2L17.79 74.12L17.76 74.04L17.74 73.97L17.73 73.89L17.71 73.81L17.7 73.73L17.68 73.65L17.67 73.53L17.66 73.41L17.66 73.29L17.66 73.17L17.67 73.06L17.68 72.94L17.7 72.83L17.72 72.71L17.74 72.6L17.77 72.49L17.8 72.38L17.84 72.28L17.88 72.17L17.93 72.07L17.98 71.97L18.03 71.87L18.09 71.77L18.15 71.68L18.22 71.59L18.29 71.5L18.36 71.41L18.43 71.33L18.51 71.25L18.59 71.17L18.68 71.1L18.77 71.03L18.86 70.96L18.95 70.9L19.05 70.84L19.15 70.78L19.25 70.73L19.35 70.68L19.46 70.63L19.57 70.59L19.68 70.56L19.79 70.53L19.91 70.5L20.02 70.48L20.14 70.46L49.04 66.71L49.04 66.71L49.05 66.7L49.05 66.69L49.06 66.68L49.07 66.67L49.07 66.66L49.08 66.65L49.08 66.64L49.09 66.62L49.1 66.6L49.11 66.6L49.12 66.56L49.14 66.54L49.14 66.53L49.15 66.52L49.16 66.51L49.16 66.5L49.16 66.49L49.17 66.48L49.18 66.47L49.18 66.47L49.18 66.46L49.19 66.45L49.19 66.45L49.29 66.31L49.39 66.18L49.49 66.05L49.59 65.92L49.7 65.79L49.8 65.67L49.9 65.54L50.01 65.42L50.12 65.29L50.22 65.17L50.33 65.05L50.44 64.93L50.55 64.81L50.67 64.7L50.78 64.58L50.89 64.47L51.01 64.36L51.13 64.24L51.24 64.14L51.36 64.03L51.48 63.92L51.6 63.81L51.72 63.71L51.84 63.6L51.96 63.5L52.09 63.4L52.21 63.3L52.33 63.2L52.46 63.11L52.59 63.01L52.71 62.92L52.84 62.82L52.97 62.73L53.1 62.64L53.23 62.55L53.36 62.46L53.49 62.37L53.62 62.29L53.75 62.2L53.75 62.2L53.74 62.2L53.74 62.21L53.65 62.05L53.56 61.9L53.47 61.74L53.38 61.58L53.3 61.42L53.22 61.26L53.14 61.1L53.06 60.94L52.98 60.78L52.91 60.61L52.84 60.45L52.76 60.28L52.7 60.12L52.63 59.95L52.57 59.79L52.5 59.62L52.44 59.45L52.38 59.28L52.33 59.11L52.27 58.94L52.22 58.77L52.17 58.6L52.12 58.42L52.07 58.25L52.03 58.08L51.98 57.9L51.94 57.73L51.9 57.55L51.87 57.38L51.83 57.2L51.8 57.03L51.77 56.85L51.74 56.67L51.71 56.49L51.69 56.32L51.66 56.14L51.64 55.96L51.62 55.78L51.6 55.6L51.56 55.61L51.53 55.62L51.49 55.63L51.45 55.64L51.41 55.65L51.37 55.65L51.26 55.68L51.18 55.7L51.14 55.71L51.1 55.72L51.07 55.72L51.03 55.73L50.99 55.74L50.95 55.75L50.91 55.76L50.87 55.77L50.83 55.77L50.8 55.78L50.76 55.79L50.72 55.8L50.68 55.81L50.64 55.81L50.6 55.82L50.57 55.83L50.53 55.84L50.49 55.84L50.45 55.85L50.41 55.86L50.37 55.86L50.33 55.87L50.29 55.88L50.26 55.88L50.22 55.89L50.18 55.89L50.14 55.9L50.1 55.9L49.66 55.96L49.21 56L48.77 56.03L48.32 56.05L47.88 56.07L47.43 56.07L46.98 56.07L46.54 56.05L46.1 56.03L45.65 56L45.21 55.96L44.77 55.9L44.33 55.84L43.89 55.78L43.45 55.7L43.02 55.61L42.58 55.51L42.15 55.41L41.72 55.3L41.3 55.18L40.87 55.04L40.45 54.91L40.04 54.76L39.62 54.6L39.21 54.44L38.8 54.26L38.4 54.08L38 53.89L37.6 53.7L37.21 53.49L36.82 53.28L36.43 53.06L36.05 52.83L35.68 52.59L35.31 52.34L34.95 52.09L34.59 51.83L34.23 51.56L33.89 51.28L33.62 51.64L33.35 52ZM60.39 65.51L59.31 65.79L58.26 66.18L57.25 66.68L56.29 67.3L55.39 68.03L54.56 68.86L53.8 69.79L53.4 70.38L53.04 71L52.72 71.63L52.44 72.28L52.21 72.94L52.02 73.61L51.88 74.28L51.78 74.97L51.73 75.66L51.72 76.36L51.76 77.05L51.85 77.75L51.97 78.39L52.13 79.01L52.33 79.61L52.57 80.2L52.84 80.76L53.14 81.31L53.48 81.83L53.86 82.33L54.27 82.8L54.7 83.25L55.17 83.66L55.67 84.05L56.81 84.75L58.02 85.28L59.27 85.63L60.56 85.8L61.86 85.8L63.15 85.64L64.42 85.31L65.65 84.83L66.82 84.19L67.91 83.4L68.92 82.47L69.81 81.39L70.57 80.19L71.15 78.94L71.57 77.64L71.81 76.33L71.89 75.01L71.8 73.71L71.55 72.44L71.14 71.21L70.57 70.05L69.84 68.97L68.97 67.99L67.94 67.13L67.78 67.01L67.62 66.9L67.45 66.79L67.28 66.69L67.12 66.59L66.94 66.49L66.77 66.4L66.6 66.31L66.42 66.23L66.24 66.15L66.06 66.07L65.88 66L64.8 65.64L63.7 65.42L62.59 65.32L61.49 65.35L60.39 65.51ZM84.16 58.75L83.55 58.86L82.94 59L82.34 59.18L81.75 59.4L81.63 59.69L81.5 59.98L81.36 60.27L81.23 60.55L81.08 60.84L80.93 61.12L80.78 61.4L80.62 61.67L80.46 61.94L80.28 62.21L80.1 62.48L79.92 62.75L79.59 63.18L79.26 63.59L78.91 63.99L78.56 64.38L78.19 64.75L77.81 65.11L77.42 65.45L77.03 65.79L76.62 66.11L76.21 66.41L75.79 66.71L75.36 66.99L75.75 67.68L76.11 68.39L76.42 69.12L76.7 69.86L76.94 70.62L77.14 71.38L77.3 72.16L77.43 72.95L77.51 73.74L77.56 74.53L77.56 75.33L77.53 76.13L77.64 76.24L77.74 76.35L77.85 76.46L77.96 76.57L78.07 76.67L78.18 76.78L78.29 76.88L78.41 76.98L78.52 77.08L78.65 77.17L78.77 77.27L78.89 77.36L79.05 77.48L79.21 77.59L79.38 77.69L79.54 77.8L79.71 77.9L79.88 77.99L80.06 78.08L80.23 78.17L80.41 78.26L80.58 78.34L80.76 78.42L80.94 78.49L82.02 78.85L83.12 79.07L84.23 79.16L85.34 79.13L86.44 78.98L87.52 78.7L88.57 78.31L89.58 77.8L90.54 77.18L91.44 76.46L92.28 75.63L93.03 74.7L93.42 74.12L93.78 73.52L94.09 72.91L94.36 72.28L94.59 71.64L94.78 70.99L94.93 70.33L95.03 69.66L95.09 68.99L95.11 68.31L95.09 67.63L95.01 66.95L94.9 66.29L94.75 65.65L94.56 65.03L94.32 64.42L94.05 63.83L93.74 63.27L93.4 62.73L93.02 62.21L92.6 61.72L92.16 61.26L91.67 60.83L91.16 60.43L91 60.32L90.84 60.21L90.67 60.1L90.5 60L90.34 59.9L90.16 59.8L89.99 59.71L89.82 59.62L89.64 59.53L89.46 59.45L89.28 59.38L89.1 59.3L88.5 59.09L87.89 58.91L87.27 58.78L86.65 58.69L86.03 58.65L85.4 58.64L84.78 58.67L84.16 58.75ZM65.88 43.52L64.8 43.8L63.75 44.19L62.74 44.7L61.78 45.31L60.88 46.04L60.05 46.87L59.29 47.8L58.66 48.77L58.15 49.79L57.75 50.83L57.46 51.89L57.29 52.97L57.24 54.04L57.29 55.11L57.45 56.16L57.72 57.18L58.09 58.17L58.57 59.11L59.15 60L59.88 59.87L60.61 59.77L61.35 59.7L62.09 59.66L62.83 59.66L63.58 59.7L64.32 59.77L65.06 59.88L65.8 60.03L66.53 60.21L67.26 60.44L67.98 60.7L68.27 60.82L68.56 60.95L68.84 61.08L69.13 61.21L69.41 61.36L69.68 61.51L69.96 61.66L70.23 61.82L70.5 61.99L70.76 62.16L71.02 62.33L71.28 62.52L71.3 62.53L71.32 62.54L71.33 62.56L71.35 62.57L71.37 62.59L71.39 62.6L71.42 62.63L71.44 62.65L71.46 62.66L71.48 62.68L71.5 62.69L71.86 62.5L72.22 62.28L72.56 62.06L72.9 61.82L73.24 61.57L73.56 61.3L73.88 61.02L74.18 60.72L74.48 60.42L74.77 60.09L75.04 59.76L75.31 59.41L75.7 58.83L76.05 58.23L76.37 57.62L76.64 56.99L76.87 56.35L77.06 55.7L77.21 55.04L77.31 54.37L77.37 53.7L77.39 53.02L77.36 52.34L77.29 51.66L77.18 51L77.03 50.36L76.83 49.73L76.6 49.12L76.33 48.54L76.02 47.97L75.68 47.43L75.3 46.92L74.88 46.43L74.43 45.97L73.95 45.54L73.44 45.14L73.28 45.03L73.11 44.92L72.95 44.81L72.78 44.7L72.61 44.6L72.44 44.51L72.27 44.41L72.09 44.32L71.92 44.24L71.74 44.16L71.56 44.08L71.38 44.01L70.3 43.65L69.2 43.43L68.09 43.33L66.98 43.37L65.88 43.52ZM96.13 7.65L95.75 7.84L95.37 8.01L94.99 8.18L94.6 8.34L94.21 8.49L93.82 8.64L93.43 8.78L93.03 8.91L92.63 9.03L92.23 9.14L91.83 9.25L91.43 9.35L91.02 9.44L90.61 9.52L90.21 9.59L89.8 9.66L89.39 9.72L88.97 9.77L88.56 9.81L88.15 9.85L87.73 9.87L87.32 9.89L86.9 9.9L86.49 9.9L86.07 9.9L85.66 9.88L85.24 9.86L84.83 9.83L84.41 9.79L84 9.75L83.58 9.69L83.17 9.63L82.75 9.56L82.34 9.48L81.93 9.39L81.52 9.29L81.11 9.19L80.7 9.07L80.69 9.22L80.67 9.36L80.65 9.51L80.64 9.66L80.62 9.8L80.6 9.95L80.58 10.09L80.55 10.24L80.53 10.38L80.51 10.53L80.48 10.67L80.45 10.81L80.43 10.96L80.4 11.1L80.37 11.24L80.34 11.39L80.31 11.53L80.28 11.67L80.24 11.82L80.21 11.96L80.17 12.1L80.14 12.24L80.1 12.38L80.06 12.53L80.02 12.67L79.99 12.81L79.94 12.95L79.9 13.09L79.86 13.23L79.82 13.37L79.77 13.51L79.73 13.65L79.68 13.79L79.63 13.92L79.58 14.06L79.53 14.2L79.48 14.34L79.43 14.47L79.38 14.61L79.33 14.75L79.16 15.16L78.98 15.56L78.8 15.97L78.61 16.36L78.41 16.76L78.2 17.14L77.99 17.52L77.77 17.9L77.54 18.27L77.3 18.64L77.06 19L76.81 19.35L76.55 19.7L76.29 20.05L76.02 20.38L75.75 20.71L75.46 21.04L75.17 21.36L74.88 21.67L74.58 21.98L74.27 22.28L73.96 22.58L73.64 22.86L73.32 23.14L72.98 23.42L72.65 23.69L72.31 23.95L71.96 24.2L71.61 24.45L71.25 24.69L70.89 24.92L70.53 25.15L70.15 25.37L69.78 25.58L69.4 25.78L69.01 25.98L68.62 26.17L68.23 26.35L67.83 26.52L67.43 26.69L67.55 26.95L67.66 27.21L67.77 27.47L67.88 27.74L67.99 28.01L68.09 28.27L68.18 28.54L68.28 28.81L68.36 29.08L68.45 29.35L68.53 29.63L68.61 29.9L68.68 30.17L68.75 30.45L68.82 30.72L68.88 31L68.94 31.28L68.99 31.55L69.05 31.83L69.09 32.11L69.14 32.39L69.18 32.67L69.21 32.95L69.25 33.23L69.28 33.51L69.3 33.79L69.32 34.08L69.34 34.36L69.36 34.64L69.37 34.92L69.37 35.21L69.38 35.49L69.38 35.77L69.37 36.06L69.36 36.34L69.35 36.62L69.34 36.91L69.32 37.19L69.3 37.47L69.27 37.76L69.38 37.77L69.48 37.78L69.59 37.79L69.7 37.8L69.8 37.82L69.91 37.83L70.01 37.84L70.12 37.86L70.23 37.87L70.33 37.89L70.44 37.9L70.54 37.92L70.65 37.94L70.76 37.96L70.86 37.98L70.97 38L71.07 38.02L71.18 38.04L71.28 38.06L71.39 38.08L71.49 38.11L71.6 38.13L71.71 38.16L71.81 38.18L71.92 38.21L72.02 38.24L72.12 38.27L72.23 38.3L72.33 38.33L72.44 38.36L72.54 38.39L72.65 38.42L72.75 38.45L72.85 38.49L72.96 38.52L73.06 38.56L73.17 38.6L73.27 38.64L73.37 38.68L73.47 38.72L73.56 38.75L73.65 38.79L73.74 38.82L73.82 38.86L73.91 38.9L74 38.93L74.08 38.97L74.17 39.01L74.25 39.05L74.34 39.09L74.42 39.13L74.51 39.17L74.59 39.21L74.68 39.26L74.76 39.3L74.85 39.34L74.93 39.39L75.01 39.43L75.1 39.47L75.18 39.52L75.26 39.57L75.34 39.61L75.43 39.66L75.51 39.71L75.59 39.75L75.67 39.8L75.75 39.85L75.83 39.9L75.91 39.95L75.99 40L76.07 40.05L76.15 40.1L76.23 40.16L76.31 40.21L76.39 40.26L76.47 40.31L76.54 40.37L76.62 40.42L76.7 40.48L76.77 40.53L76.85 40.59L76.93 40.64L77 40.7L77.08 40.76L77.15 40.82L77.23 40.88L77.3 40.93L77.37 40.99L77.45 41.05L77.52 41.11L77.59 41.18L77.66 41.24L77.73 41.3L77.8 41.36L77.87 41.42L77.94 41.49L78.01 41.55L78.08 41.62L78.14 41.68L78.21 41.74L78.28 41.81L78.34 41.88L78.41 41.94L78.47 42.01L78.54 42.07L78.6 42.14L78.67 42.21L78.73 42.28L78.8 42.34L78.86 42.41L78.92 42.48L78.98 42.55L79.05 42.62L79.11 42.69L79.17 42.76L79.23 42.83L79.29 42.9L79.35 42.97L79.41 43.04L79.47 43.11L90.09 16.32L90.14 16.21L90.19 16.11L90.24 16.01L90.3 15.91L90.36 15.81L90.42 15.72L90.49 15.63L90.56 15.54L90.63 15.45L90.71 15.37L90.79 15.3L90.87 15.22L90.95 15.15L91.04 15.08L91.13 15.02L91.22 14.96L91.31 14.9L91.41 14.85L91.51 14.8L91.61 14.76L91.71 14.72L91.81 14.68L91.91 14.64L92.02 14.61L92.13 14.59L92.23 14.57L92.34 14.55L92.45 14.54L92.56 14.53L92.67 14.52L92.78 14.52L92.9 14.53L93.01 14.54L93.12 14.55L93.23 14.57L93.34 14.59L93.45 14.62L93.57 14.65L93.68 14.68L93.79 14.72L93.89 14.77L94 14.82L94.1 14.87L94.2 14.93L94.3 14.99L94.39 15.05L94.48 15.12L94.57 15.19L94.65 15.26L94.73 15.34L94.81 15.42L94.89 15.5L94.96 15.59L95.02 15.67L95.09 15.76L95.15 15.85L95.2 15.95L95.26 16.04L95.31 16.14L95.35 16.24L95.39 16.34L95.43 16.44L95.46 16.55L95.49 16.65L95.52 16.76L95.54 16.87L95.56 16.98L95.57 17.09L95.58 17.2L95.58 17.31L95.58 17.42L95.58 17.53L95.57 17.64L95.56 17.75L95.54 17.86L95.52 17.98L95.49 18.09L95.46 18.2L95.42 18.31L95.38 18.42L82.83 50.1L82.82 50.11L82.82 50.12L82.81 50.13L82.81 50.13L82.8 50.14L82.8 50.15L82.8 50.15L82.79 50.15L82.78 50.18L82.77 50.18L82.76 50.19L82.77 50.21L82.77 50.23L82.78 50.25L82.78 50.26L82.78 50.28L82.79 50.3L82.79 50.32L82.8 50.33L82.8 50.35L82.8 50.37L82.81 50.39L82.81 50.4L82.82 50.42L82.82 50.44L82.83 50.47L82.85 50.52L82.86 50.56L82.87 50.59L82.87 50.61L82.88 50.62L82.88 50.64L82.88 50.66L82.89 50.68L82.89 50.69L82.9 50.71L82.9 50.73L82.91 50.74L82.91 50.76L82.91 50.78L82.92 50.8L82.92 50.81L82.92 50.83L82.93 50.85L82.93 50.87L82.93 50.89L82.94 50.94L82.95 51L82.95 51.06L82.96 51.11L82.97 51.17L82.97 51.23L82.98 51.29L82.98 51.34L82.99 51.4L82.99 51.46L82.99 51.51L83 51.57L83 51.63L83 51.69L83.01 51.74L83.01 51.8L83.01 51.86L83.01 51.92L83.02 51.97L83.02 52.03L83.02 52.09L83.02 52.14L83.02 52.2L83.02 52.26L83.02 52.32L83.02 52.37L83.02 52.43L83.02 52.49L83.02 52.54L83.02 52.6L83.02 52.66L83.02 52.71L83.02 52.77L83.02 52.83L83.02 52.89L83.02 52.94L83.02 53.06L83.02 53.11L83.02 53.17L83.02 53.16L83.23 53.13L83.43 53.1L83.63 53.07L83.84 53.05L84.04 53.03L84.25 53.01L84.45 52.99L84.66 52.98L84.86 52.97L85.07 52.96L85.28 52.95L85.48 52.95L85.69 52.95L85.89 52.95L86.1 52.96L86.31 52.97L86.51 52.98L86.72 52.99L86.92 53L87.13 53.02L87.34 53.05L87.54 53.07L87.75 53.1L87.95 53.13L88.16 53.16L88.36 53.2L88.57 53.23L88.77 53.28L88.98 53.32L89.18 53.37L89.39 53.42L89.59 53.47L89.79 53.53L89.99 53.59L90.2 53.65L90.4 53.71L90.6 53.78L90.8 53.85L91 53.93L91.2 54.01L91.24 54.02L91.28 54.04L91.32 54.05L91.36 54.07L91.39 54.09L91.43 54.1L91.47 54.12L91.51 54.13L91.55 54.15L91.59 54.17L91.63 54.18L91.66 54.2L91.7 54.22L91.74 54.24L91.78 54.25L91.82 54.27L91.86 54.29L91.89 54.31L91.93 54.33L91.97 54.34L92.01 54.36L92.05 54.38L92.09 54.4L92.12 54.42L92.16 54.43L92.2 54.45L92.24 54.47L92.27 54.49L92.31 54.51L92.35 54.53L92.39 54.55L92.43 54.57L92.46 54.59L92.5 54.61L92.54 54.63L92.58 54.64L92.61 54.66L92.65 54.68L92.69 54.7L92.72 54.72L92.73 54.69L92.74 54.66L92.75 54.63L92.76 54.6L92.77 54.57L92.78 54.54L92.8 54.48L92.82 54.39L92.84 54.33L92.85 54.3L92.86 54.27L92.87 54.24L92.88 54.21L92.89 54.18L92.9 54.15L92.91 54.12L92.92 54.09L92.93 54.06L92.94 54.03L92.95 54L92.96 53.97L92.97 53.94L92.98 53.91L92.99 53.88L93 53.85L93.01 53.82L93.02 53.79L93.03 53.76L93.04 53.73L93.05 53.71L93.06 53.68L93.07 53.65L93.08 53.62L93.09 53.59L93.1 53.56L93.12 53.53L93.28 53.12L93.46 52.71L93.64 52.31L93.83 51.91L94.03 51.52L94.24 51.14L94.45 50.76L94.67 50.38L94.9 50.01L95.14 49.64L95.38 49.28L95.63 48.93L95.88 48.58L96.15 48.24L96.42 47.9L96.69 47.57L96.97 47.25L97.26 46.93L97.56 46.61L97.86 46.31L98.16 46L98.48 45.71L98.8 45.42L99.12 45.14L99.45 44.86L99.79 44.6L100.13 44.33L100.47 44.08L100.83 43.83L101.18 43.59L101.55 43.36L101.91 43.13L102.28 42.91L102.66 42.7L103.04 42.49L103.43 42.3L103.82 42.11L104.21 41.93L104.61 41.75L105.01 41.58L104.83 41.19L104.66 40.79L104.5 40.39L104.34 39.98L104.2 39.58L104.06 39.17L103.93 38.76L103.81 38.34L103.7 37.93L103.59 37.51L103.5 37.09L103.41 36.67L103.33 36.25L103.26 35.82L103.2 35.4L103.15 34.97L103.11 34.54L103.07 34.11L103.05 33.69L103.03 33.26L103.02 32.83L103.02 32.4L103.03 31.97L103.05 31.54L103.07 31.1L103.11 30.67L103.15 30.24L103.2 29.81L103.26 29.39L103.33 28.96L103.41 28.53L103.5 28.1L103.6 27.68L103.7 27.25L103.82 26.83L103.94 26.41L104.08 25.99L104.22 25.57L104.37 25.15L104.53 24.73L104.58 24.6L104.64 24.46L104.69 24.33L104.75 24.19L104.81 24.06L104.87 23.93L104.93 23.79L104.99 23.66L105.05 23.53L105.11 23.39L105.18 23.26L105.24 23.13L105.31 23L105.38 22.87L105.44 22.74L105.51 22.61L105.58 22.48L105.65 22.35L105.72 22.22L105.8 22.1L105.87 21.97L105.94 21.84L106.02 21.72L106.09 21.59L106.17 21.46L106.25 21.34L106.33 21.22L106.4 21.09L106.48 20.97L106.57 20.85L106.65 20.72L106.73 20.6L106.81 20.48L106.9 20.36L106.98 20.24L107.07 20.12L107.15 20L107.24 19.88L107.33 19.76L107.42 19.65L107.04 19.45L106.67 19.24L106.3 19.03L105.94 18.81L105.58 18.58L105.23 18.35L104.88 18.11L104.54 17.86L104.21 17.61L103.88 17.35L103.55 17.09L103.23 16.82L102.92 16.54L102.61 16.26L102.31 15.98L102.02 15.68L101.73 15.39L101.44 15.08L101.17 14.78L100.9 14.46L100.63 14.14L100.37 13.82L100.12 13.49L99.88 13.16L99.64 12.82L99.4 12.48L99.18 12.13L98.96 11.78L98.75 11.43L98.54 11.07L98.34 10.71L98.15 10.34L97.97 9.97L97.79 9.59L97.62 9.21L97.45 8.83L97.3 8.44L97.15 8.05L97.01 7.66L96.88 7.26L96.5 7.46L96.13 7.65Z" id="f9noLF9P0"></path></defs><g><g><use xlink:href="#g25fhmw6MX" opacity="1" fill="#d64541" fill-opacity="1"></use><g><use xlink:href="#g25fhmw6MX" opacity="1" fill-opacity="0" stroke="#000000" stroke-width="1" stroke-opacity="0"></use></g></g><g><use xlink:href="#h14KdRgJi5" opacity="1" fill="#d64541" fill-opacity="1"></use><g><use xlink:href="#h14KdRgJi5" opacity="1" fill-opacity="0" stroke="#000000" stroke-width="1" stroke-opacity="0"></use></g></g><g><use xlink:href="#aTGsn3gDD" opacity="1" fill="#4daf7c" fill-opacity="1"></use><g><use xlink:href="#aTGsn3gDD" opacity="1" fill-opacity="0" stroke="#000000" stroke-width="1" stroke-opacity="0"></use></g></g><g><use xlink:href="#l1XAecaB3S" opacity="1" fill="#4daf7c" fill-opacity="1"></use><g><use xlink:href="#l1XAecaB3S" opacity="1" fill-opacity="0" stroke="#000000" stroke-width="1" stroke-opacity="0"></use></g></g><g><use xlink:href="#k9GIxXS49" opacity="1" fill="#4daf7c" fill-opacity="1"></use><g><use xlink:href="#k9GIxXS49" opacity="1" fill-opacity="0" stroke="#000000" stroke-width="1" stroke-opacity="0"></use></g></g><g><use xlink:href="#g2GdNY6cmP" opacity="1" fill="#d64541" fill-opacity="1"></use><g><use xlink:href="#g2GdNY6cmP" opacity="1" fill-opacity="0" stroke="#000000" stroke-width="1" stroke-opacity="0"></use></g></g><g><use xlink:href="#f9noLF9P0" opacity="1" fill="#26251d" fill-opacity="1"></use><g><use xlink:href="#f9noLF9P0" opacity="1" fill-opacity="0" stroke="#000000" stroke-width="1" stroke-opacity="0"></use></g></g></g></svg>