<?xml version="1.0" encoding="iso-8859-1"?>
<!-- Generator: Adobe Illustrator 19.0.0, SVG Export Plug-In . SVG Version: 6.00 Build 0)  -->
<svg version="1.1" id="Capa_1" xmlns="http://www.w3.org/2000/svg" xmlns:xlink="http://www.w3.org/1999/xlink" x="0px" y="0px"
	 viewBox="0 0 512 512" style="enable-background:new 0 0 512 512;" xml:space="preserve">
<polygon style="fill:#E55C5C;" points="294.127,67.782 294.128,174.393 256.001,152.605 223.319,67.782 "/>
<polygon style="fill:#EC8585;" points="255.999,67.782 256.001,152.605 217.872,174.393 217.872,67.782 "/>
<path style="fill:#992A2A;" d="M370.742,8.172c-9.554,0-19.783,2.124-29.827,5.371v109.023c10.044,3.246,20.273,5.371,29.827,5.371
	c0,0,15.36-24.946,15.36-59.882S370.742,8.172,370.742,8.172z"/>
<path style="fill:#DF3333;" d="M340.915,13.543c4.445,9.14,12.506,29.206,12.506,54.512s-8.061,45.372-12.506,54.512
	c-32.496-10.501-63.129-32.724-63.129-32.724l-21.787-14.521l-21.787,14.521c0,0-52.518,38.095-92.955,38.095
	c0,0-15.36-24.946-15.36-59.882s15.36-59.882,15.36-59.882c40.437,0,92.955,38.095,92.955,38.095l21.787,14.521l21.787-14.521
	C277.787,46.267,308.42,24.044,340.915,13.543z"/>
<g>
	<path style="fill:#619243;" d="M135.124,408.227l5.01-34.455l-34.455,5.01c-5.411,0.756-10.608,3.232-14.768,7.392
		c-10.168,10.168-10.168,26.655,0,36.823c10.168,10.168,26.655,10.168,36.823,0C131.892,418.836,134.368,413.637,135.124,408.227z"
		/>
	<path style="fill:#619243;" d="M276.823,462.121l-20.822-27.906l-20.822,27.906c-3.292,4.361-5.216,9.787-5.216,15.67
		c0,14.38,11.657,26.037,26.037,26.037c14.38,0,26.037-11.657,26.037-26.037C282.038,471.908,280.114,466.482,276.823,462.121z"/>
	<path style="fill:#619243;" d="M216.24,397.017l-20.822-27.906l-20.822,27.906c-3.292,4.361-5.216,9.787-5.216,15.67
		c0,14.38,11.657,26.037,26.037,26.037c14.38,0,26.037-11.657,26.037-26.037C221.456,406.804,219.532,401.376,216.24,397.017z"/>
	<path style="fill:#619243;" d="M147.775,308.421l27.906-20.822l-27.906-20.822c-4.361-3.292-9.787-5.216-15.67-5.216
		c-14.38,0-26.037,11.657-26.037,26.037c0,14.38,11.657,26.037,26.037,26.037C137.988,313.637,143.414,311.713,147.775,308.421z"/>
	<path style="fill:#619243;" d="M376.877,341.026l-5.01-34.455l34.455,5.01c5.411,0.756,10.608,3.232,14.768,7.392
		c10.168,10.168,10.168,26.655,0,36.823c-10.168,10.168-26.654,10.168-36.823,0C380.109,351.634,377.633,346.437,376.877,341.026z"
		/>
	<path style="fill:#619243;" d="M295.761,329.815l20.822-27.906l20.822,27.906c3.292,4.361,5.216,9.787,5.216,15.67
		c0,14.38-11.657,26.037-26.037,26.037c-14.38,0-26.037-11.657-26.037-26.037C290.545,339.602,292.469,334.176,295.761,329.815z"/>
	<path style="fill:#619243;" d="M364.226,241.221l-27.906-20.822l27.906-20.822c4.361-3.292,9.787-5.216,15.67-5.216
		c14.38,0,26.037,11.657,26.037,26.037c0,14.38-11.657,26.037-26.037,26.037C374.013,246.436,368.587,244.512,364.226,241.221z"/>
</g>
<rect x="234.213" y="46.267" style="fill:#992A2A;" width="43.574" height="43.574"/>
<path d="M426.87,313.195c-5.32-5.32-12.034-8.677-19.37-9.701l-31.772-4.619l-70.306-70.306h28.187l25.696,19.172
	c5.948,4.491,13.069,6.866,20.593,6.866c18.861,0,34.207-15.345,34.207-34.207s-15.346-34.207-34.207-34.207
	c-7.523,0-14.644,2.374-20.556,6.837l-25.733,19.2h-44.527l-24.912-24.912v-20.634l25.904,14.802
	c1.256,0.718,2.655,1.076,4.054,1.076c1.417,0,2.833-0.368,4.101-1.104c2.52-1.462,4.069-4.154,4.069-7.067v-59.841
	c19.419,10.461,45.437,21.558,68.446,21.558c2.837,0,5.47-1.472,6.958-3.887c0.677-1.099,16.57-27.342,16.57-64.168
	s-15.894-63.069-16.57-64.168C376.215,1.472,373.582,0,370.744,0c-38.253,0-84.832,30.671-95.547,38.097h-11.027V8.17
	c0-4.512-3.657-8.17-8.17-8.17c-4.513,0-8.17,3.658-8.17,8.17v29.927h-11.027C226.089,30.671,179.51,0,141.257,0
	c-2.837,0-5.47,1.472-6.958,3.887c-0.676,1.099-16.57,27.342-16.57,64.168s15.894,63.069,16.57,64.168
	c1.487,2.415,4.12,3.887,6.958,3.887c23.008,0,49.027-11.097,68.446-21.558v59.841c0,2.912,1.55,5.605,4.069,7.067
	c2.52,1.462,5.628,1.473,8.154,0.027l25.904-14.802v87.834l-24.91,24.91h-44.527l-25.696-19.173
	c-5.949-4.491-13.07-6.865-20.593-6.865c-18.861,0-34.207,15.345-34.207,34.207s15.346,34.207,34.207,34.207
	c7.523,0,14.643-2.374,20.556-6.838l25.733-19.2h28.187l-70.306,70.306l-31.727,4.612c-7.382,1.031-14.095,4.387-19.415,9.707
	c-6.462,6.461-10.02,15.052-10.02,24.189s3.559,17.727,10.019,24.188c6.462,6.461,15.051,10.019,24.188,10.019
	s17.727-3.558,24.189-10.019c5.318-5.318,8.675-12.032,9.7-19.371l4.619-31.771l39.421-39.421v28.188l-19.172,25.694
	c-4.491,5.948-6.866,13.07-6.866,20.594c0,18.862,15.346,34.207,34.207,34.207s34.207-15.345,34.207-34.207
	c0-7.523-2.375-14.643-6.838-20.556l-19.199-25.732v-44.529l28.491-28.491c0.004-0.004,15.75-15.75,15.75-15.75V431.5
	l-19.173,25.695c-4.49,5.949-6.865,13.07-6.865,20.593c0.003,18.867,15.349,34.211,34.21,34.211s34.207-15.345,34.207-34.207
	c0-7.523-2.374-14.644-6.837-20.557l-19.2-25.732v-40.192l50.552,50.552c1.596,1.595,3.688,2.393,5.778,2.393
	c2.09,0,4.182-0.797,5.778-2.393c3.191-3.191,3.191-8.364,0-11.554l-62.108-62.108V210.428l15.747,15.747
	c0.004,0.004,28.496,28.496,28.496,28.496v44.529l-19.173,25.695c-4.49,5.949-6.865,13.07-6.865,20.593
	c0,18.862,15.346,34.207,34.207,34.207c18.861,0,34.207-15.345,34.207-34.207c0-7.524-2.375-14.646-6.838-20.556l-19.199-25.732
	V271.01l39.421,39.421l4.612,31.728c1.032,7.383,4.388,14.096,9.707,19.415c6.461,6.461,15.051,10.019,24.188,10.019
	s17.726-3.558,24.187-10.019c6.462-6.461,10.02-15.052,10.02-24.189S433.33,319.656,426.87,313.195z M369.15,206.097
	c3.089-2.333,6.805-3.565,10.747-3.565c9.852,0,17.867,8.014,17.867,17.867c0,9.852-8.014,17.867-17.867,17.867
	c-3.941,0-7.657-1.233-10.784-3.594l-19.13-14.273L369.15,206.097z M142.851,301.9c-3.089,2.333-6.806,3.567-10.747,3.567
	c-9.852,0-17.867-8.014-17.867-17.867s8.014-17.867,17.867-17.867c3.941,0,7.657,1.233,10.784,3.594l19.13,14.274L142.851,301.9z
	 M213.286,412.687c0,9.852-8.014,17.867-17.867,17.867c-9.852,0-17.867-8.014-17.867-17.867c0-3.941,1.233-7.658,3.594-10.785
	l14.274-19.13l14.3,19.166C212.052,405.03,213.286,408.746,213.286,412.687z M127.032,407.096
	c-0.536,3.837-2.292,7.337-5.078,10.122c-3.376,3.375-7.863,5.233-12.636,5.233s-9.258-1.858-12.634-5.233
	c-3.375-3.375-5.233-7.861-5.233-12.633s1.858-9.26,5.234-12.634c2.787-2.787,6.287-4.543,10.166-5.084l23.621-3.434
	L127.032,407.096z M377.932,68.056c0,24.207-8.013,43.476-11.979,51.526c-30.919-2.365-68.656-26.359-79.995-34.019V50.544
	c11.334-7.664,49.041-31.661,80.011-34.017C369.939,24.536,377.932,43.69,377.932,68.056z M242.384,54.438h13.606
	c0.022,0,13.628,0,13.628,0v27.235h-27.234V54.438z M134.069,68.056c0-24.207,8.013-43.478,11.979-51.527
	c30.919,2.365,68.655,26.359,79.995,34.019v35.019c-11.332,7.663-49.026,31.655-79.994,34.016
	C142.081,111.522,134.069,92.256,134.069,68.056z M226.043,105.065c4.847-3.021,8.559-5.525,10.761-7.05h11.027v21.911
	c0,4.512,3.657,8.17,8.17,8.17c4.513,0,8.17-3.658,8.17-8.17V98.013h11.027c2.202,1.526,5.914,4.03,10.761,7.05v55.25
	l-25.904-14.802c-0.339-0.187-0.637-0.334-0.948-0.462c-0.028-0.012-0.058-0.021-0.087-0.032c-0.27-0.108-0.548-0.199-0.831-0.278
	c-0.08-0.022-0.159-0.041-0.239-0.061c-0.242-0.06-0.488-0.107-0.739-0.145c-0.08-0.012-0.159-0.027-0.24-0.037
	c-0.318-0.037-0.641-0.062-0.968-0.062c-0.328,0-0.65,0.025-0.968,0.062c-0.081,0.01-0.16,0.025-0.24,0.037
	c-0.251,0.037-0.497,0.085-0.739,0.145c-0.08,0.02-0.159,0.039-0.239,0.061c-0.283,0.078-0.561,0.17-0.831,0.278
	c-0.029,0.012-0.059,0.021-0.087,0.033c-0.31,0.127-0.61,0.275-0.899,0.438c-0.049,0.024-25.953,14.826-25.953,14.826v-55.25
	H226.043z M273.867,477.793c0,9.852-8.014,17.867-17.867,17.867c-9.852,0-17.867-8.014-17.867-17.867
	c0-3.941,1.233-7.657,3.594-10.785l14.273-19.13l14.301,19.166C272.635,470.134,273.867,473.851,273.867,477.793z M334.45,345.487
	c0,9.852-8.014,17.867-17.867,17.867c-9.852,0-17.867-8.014-17.867-17.867c0-3.941,1.233-7.657,3.594-10.785l14.274-19.13
	l14.301,19.167C333.217,337.828,334.45,341.544,334.45,345.487z M415.314,350.017c-3.375,3.375-7.861,5.233-12.633,5.233
	c-4.772,0-9.26-1.858-12.634-5.233c-2.787-2.787-4.543-6.287-5.085-10.167l-3.434-23.62l23.666,3.44
	c3.835,0.536,7.334,2.292,10.121,5.079c3.375,3.375,5.233,7.861,5.233,12.633C420.549,342.155,418.69,346.643,415.314,350.017z"/>
<g>
</g>
<g>
</g>
<g>
</g>
<g>
</g>
<g>
</g>
<g>
</g>
<g>
</g>
<g>
</g>
<g>
</g>
<g>
</g>
<g>
</g>
<g>
</g>
<g>
</g>
<g>
</g>
<g>
</g>
</svg>
