<?xml version="1.0" encoding="UTF-8" standalone="no"?>
<svg
   xmlns:dc="http://purl.org/dc/elements/1.1/"
   xmlns:cc="http://creativecommons.org/ns#"
   xmlns:rdf="http://www.w3.org/1999/02/22-rdf-syntax-ns#"
   xmlns:svg="http://www.w3.org/2000/svg"
   xmlns="http://www.w3.org/2000/svg"
   viewBox="0 0 683.66669 683.66669"
   height="683.66669"
   width="683.66669"
   xml:space="preserve"
   id="svg2"
   version="1.1"><metadata
     id="metadata8"><rdf:RDF><cc:Work
         rdf:about=""><dc:format>image/svg+xml</dc:format><dc:type
           rdf:resource="http://purl.org/dc/dcmitype/StillImage" /></cc:Work></rdf:RDF></metadata><defs
     id="defs6" /><g
     transform="matrix(1.3333333,0,0,-1.3333333,0,683.66667)"
     id="g10"><g
       transform="scale(0.1)"
       id="g12"><path
         id="path14"
         style="fill:#b1d23c;fill-opacity:1;fill-rule:nonzero;stroke:none"
         d="m 2044.3,3008.26 0.01,-392.38 -496.01,-496.01 117.43,-117.42 378.59,378.59 -0.01,-1351.09 166.05,0.01 0.01,907.21 378.6,-378.6 117.42,117.42 L 2210,2172 v 836.27 z" /><path
         id="path16"
         style="fill:#b1d23c;fill-opacity:1;fill-rule:nonzero;stroke:none"
         d="m 3180,2940 -457.38,460 h 807.59 v 170 H 2278.75 L 2735.62,4023.97 2618.2,4141.39 2043.91,3570 h -358 l -363.86,353.87 c -32.42,32.42 -150.52,-80 -118.09,-112.43 L 3499.18,1519 3616.6,1636.41 3151.74,2100 h 726.51 c 45.86,1.29 83.03,38.45 83.03,84.3 0,45.85 -37.18,83.03 -83.02,83.02 H 2985.68 L 1851.96,3400 h 635.81 l 574.3,-573.25 z" /><path
         id="path18"
         style="fill:#b1d23c;fill-opacity:1;fill-rule:nonzero;stroke:none"
         d="m 2044.31,1231.8 -128.56,-172.31 c -33.46,-44.31 -53,-99.451 -53.02,-159.244 0,-146.133 118.47,-264.601 264.6,-264.601 146.13,0 264.6,118.468 264.6,264.601 0,59.793 -19.55,114.934 -53,159.234 l -128.57,172.31 z" /><path
         id="path20"
         style="fill:#b1d23c;fill-opacity:1;fill-rule:nonzero;stroke:none"
         d="m 3740,1690 -208.34,31.36 -117.41,-117.41 30.93,-212.75 c 7.68,-54.97 32.86,-107.8 75.13,-150.08 103.33,-103.33 270.86,-103.33 374.19,0 103.33,103.33 103.33,270.86 0,374.18 -42.28,42.28 -95.1,67.44 -154.5,74.7 z" /><path
         id="path22"
         style="fill:#b1d23c;fill-opacity:1;fill-rule:nonzero;stroke:none"
         d="m 2840,1720 -211.48,33.86 -117.42,-117.41 30.93,-212.75 c 7.69,-54.99 32.85,-107.81 75.13,-150.09 103.33,-103.33 270.86,-103.33 374.19,0 103.33,103.33 103.33,270.87 0.01,374.19 -42.3,42.28 -95.13,67.45 -151.36,72.2 z" /><path
         id="path24"
         style="fill:#b1d23c;fill-opacity:1;fill-rule:nonzero;stroke:none"
         d="m 1413.43,2166.81 c -54.98,-7.68 -107.81,-32.85 -150.09,-75.13 -103.33,-103.32 -103.33,-270.85 0.01,-374.19 103.33,-103.33 270.86,-103.33 374.19,0 42.27,42.28 67.44,95.1 75.12,150.08 l 30.94,212.75 -117.41,117.41 z" /><path
         id="path26"
         style="fill:#b1d23c;fill-opacity:1;fill-rule:nonzero;stroke:none"
         d="m 3740,3750 c -56.75,-0.99 -111.89,-20.54 -156.2,-54 L 3410,3567.43 v -166.06 l 173.8,-128.56 c 44.31,-33.46 99.45,-53 159.24,-53.01 146.13,0 264.6,118.47 264.6,264.6 0,146.15 -118.46,264.61 -267.64,265.6 z" /><path
         id="path28"
         style="fill:#b1d23c;fill-opacity:1;fill-rule:nonzero;stroke:none"
         d="M 4030,2400 3860,2271.65 V 2105.6 l 174.41,-128.56 c 44.3,-33.44 99.47,-53 159.25,-53 146.14,0 264.59,118.46 264.59,264.59 0,146.13 -118.45,264.59 -264.59,264.59 -59.78,0 -114.93,-19.56 -163.66,-53.22 z" /><path
         id="path30"
         style="fill:#b1d23c;fill-opacity:1;fill-rule:nonzero;stroke:none"
         d="m 3230,3080 -213.73,27.4 -117.41,-117.42 30.93,-212.74 c 7.68,-54.97 32.85,-107.81 75.14,-150.08 103.32,-103.34 270.85,-103.34 374.19,0 103.33,103.34 103.33,270.86 0,374.19 -42.3,42.28 -95.11,67.44 -149.12,78.65 z" /><path
         id="path32"
         style="fill:#b1d23c;fill-opacity:1;fill-rule:nonzero;stroke:none"
         d="m 2560,4350 c -37.45,-43.04 -62.62,-95.86 -70.3,-150.85 l -30.93,-212.75 117.41,-117.42 212.76,30.93 c 54.97,7.69 107.8,32.86 150.08,75.13 103.33,103.33 103.33,270.86 0,374.19 -103.34,103.34 -270.87,103.33 -379.02,0.77 z" /><path
         id="path34"
         style="fill:#ffffff;fill-opacity:1;fill-rule:nonzero;stroke:none"
         d="m 2062.63,2586.41 c 28.33,-77.84 -11.81,-163.92 -89.65,-192.25 -77.85,-28.34 -163.93,11.8 -192.26,89.65 -28.34,77.84 11.8,163.92 89.65,192.25 77.84,28.34 163.92,-11.8 192.26,-89.65" /><path
         id="path36"
         style="fill:none;stroke:#c0c0c0;stroke-width:20;stroke-linecap:round;stroke-linejoin:round;stroke-miterlimit:10;stroke-dasharray:none;stroke-opacity:1"
         d="m 2062.63,2586.41 c 28.33,-77.84 -11.81,-163.92 -89.65,-192.25 -77.85,-28.34 -163.93,11.8 -192.26,89.65 -28.34,77.85 11.8,163.92 89.65,192.25 77.84,28.34 163.92,-11.8 192.26,-89.65" /><path
         id="path38"
         style="fill:#ebebeb;fill-opacity:1;fill-rule:nonzero;stroke:none"
         d="m 1833.68,2527.16 c 2.83,-7.78 -1.19,-16.39 -8.97,-19.22 -7.78,-2.84 -16.39,1.18 -19.23,8.96 -2.83,7.79 1.18,16.39 8.97,19.23 7.78,2.83 16.39,-1.18 19.23,-8.97" /><path
         id="path40"
         style="fill:#ebebeb;fill-opacity:1;fill-rule:nonzero;stroke:none"
         d="m 1871.73,2542.52 c 2.83,-7.79 -1.18,-16.39 -8.96,-19.23 -7.79,-2.83 -16.4,1.18 -19.23,8.97 -2.83,7.78 1.18,16.39 8.96,19.22 7.79,2.84 16.39,-1.18 19.23,-8.96" /><path
         id="path42"
         style="fill:#ebebeb;fill-opacity:1;fill-rule:nonzero;stroke:none"
         d="m 1886.24,2502.65 c 2.83,-7.79 -1.18,-16.39 -8.97,-19.22 -7.78,-2.84 -16.39,1.18 -19.22,8.96 -2.84,7.78 1.18,16.39 8.97,19.22 7.78,2.84 16.39,-1.18 19.22,-8.96" /><path
         id="path44"
         style="fill:#ebebeb;fill-opacity:1;fill-rule:nonzero;stroke:none"
         d="m 1846.37,2488.14 c 2.84,-7.78 -1.18,-16.39 -8.96,-19.23 -7.79,-2.83 -16.39,1.18 -19.23,8.97 -2.83,7.78 1.18,16.39 8.97,19.23 7.78,2.83 16.39,-1.19 19.22,-8.97" /><path
         id="path46"
         style="fill:#ffffff;fill-opacity:1;fill-rule:nonzero;stroke:none"
         d="m 2060.47,2454.55 c 41.42,71.74 133.16,96.32 204.9,54.9 71.75,-41.42 96.33,-133.16 54.91,-204.9 -41.42,-71.75 -133.16,-96.33 -204.91,-54.91 -71.74,41.43 -96.32,133.16 -54.9,204.91" /><path
         id="path48"
         style="fill:none;stroke:#c0c0c0;stroke-width:20;stroke-linecap:round;stroke-linejoin:round;stroke-miterlimit:10;stroke-dasharray:none;stroke-opacity:1"
         d="m 2060.47,2454.55 c 41.42,71.74 133.16,96.32 204.9,54.9 71.75,-41.42 96.33,-133.16 54.91,-204.9 -41.42,-71.75 -133.16,-96.33 -204.91,-54.91 -71.74,41.43 -96.32,133.16 -54.9,204.91" /><path
         id="path50"
         style="fill:#ebebeb;fill-opacity:1;fill-rule:nonzero;stroke:none"
         d="m 2253.02,2317.25 c 4.15,7.17 13.32,9.63 20.5,5.49 7.17,-4.15 9.63,-13.32 5.49,-20.49 -4.15,-7.18 -13.32,-9.64 -20.49,-5.49 -7.18,4.14 -9.64,13.31 -5.5,20.49" /><path
         id="path52"
         style="fill:#ebebeb;fill-opacity:1;fill-rule:nonzero;stroke:none"
         d="m 2216.8,2336.53 c 4.14,7.17 13.32,9.63 20.49,5.49 7.17,-4.14 9.63,-13.32 5.49,-20.49 -4.14,-7.17 -13.32,-9.64 -20.49,-5.49 -7.17,4.14 -9.63,13.32 -5.49,20.49" /><path
         id="path54"
         style="fill:#ebebeb;fill-opacity:1;fill-rule:nonzero;stroke:none"
         d="m 2238.02,2373.27 c 4.14,7.18 13.31,9.63 20.48,5.49 7.18,-4.14 9.64,-13.31 5.5,-20.49 -4.15,-7.17 -13.32,-9.63 -20.5,-5.49 -7.17,4.14 -9.63,13.32 -5.48,20.49" /><path
         id="path56"
         style="fill:#ebebeb;fill-opacity:1;fill-rule:nonzero;stroke:none"
         d="m 2274.76,2352.06 c 4.14,7.17 13.31,9.63 20.49,5.49 7.17,-4.14 9.63,-13.32 5.49,-20.49 -4.15,-7.18 -13.32,-9.63 -20.49,-5.49 -7.18,4.14 -9.64,13.31 -5.49,20.49" /><path
         id="path58"
         style="fill:#ffffff;fill-opacity:1;fill-rule:nonzero;stroke:none"
         d="m 1915,2381.45 c 82.84,0 150,-67.15 150,-150 0,-82.84 -67.16,-150 -150,-150 -82.84,0 -150,67.16 -150,150 0,82.85 67.16,150 150,150" /><path
         id="path60"
         style="fill:none;stroke:#c0c0c0;stroke-width:20;stroke-linecap:round;stroke-linejoin:round;stroke-miterlimit:10;stroke-dasharray:none;stroke-opacity:1"
         d="m 1915,2381.45 c 82.84,0 150,-67.15 150,-150 0,-82.84 -67.16,-150 -150,-150 -82.84,0 -150,67.16 -150,150 0,82.85 67.16,150 150,150" /><path
         id="path62"
         style="fill:#ebebeb;fill-opacity:1;fill-rule:nonzero;stroke:none"
         d="m 1892.37,2146.05 c 8.29,0 15,-6.72 15,-15 0,-8.29 -6.71,-15 -15,-15 -8.28,0 -15,6.71 -15,15 0,8.28 6.72,15 15,15" /><path
         id="path64"
         style="fill:#ebebeb;fill-opacity:1;fill-rule:nonzero;stroke:none"
         d="m 1890.96,2187.06 c 8.28,0 15,-6.72 15,-15 0,-8.29 -6.72,-15 -15,-15 -8.28,0 -15,6.71 -15,15 0,8.28 6.72,15 15,15" /><path
         id="path66"
         style="fill:#ebebeb;fill-opacity:1;fill-rule:nonzero;stroke:none"
         d="m 1933.39,2187.06 c 8.28,0 15,-6.72 15,-15 0,-8.29 -6.72,-15 -15,-15 -8.29,0 -15,6.71 -15,15 0,8.28 6.71,15 15,15" /><path
         id="path68"
         style="fill:#ebebeb;fill-opacity:1;fill-rule:nonzero;stroke:none"
         d="m 1933.39,2144.63 c 8.28,0 15,-6.72 15,-15 0,-8.28 -6.72,-15 -15,-15 -8.29,0 -15,6.72 -15,15 0,8.28 6.71,15 15,15" /><path
         id="path70"
         style="fill:#ffffff;fill-opacity:1;fill-rule:nonzero;stroke:none"
         d="m 2126.73,1481.52 c 58.58,58.58 153.56,58.58 212.13,0 58.59,-58.58 58.59,-153.55 0,-212.13 -58.57,-58.58 -153.55,-58.58 -212.13,0 -58.58,58.58 -58.58,153.55 0,212.13" /><path
         id="path72"
         style="fill:none;stroke:#c0c0c0;stroke-width:20;stroke-linecap:round;stroke-linejoin:round;stroke-miterlimit:10;stroke-dasharray:none;stroke-opacity:1"
         d="m 2126.73,1481.52 c 58.58,58.58 153.56,58.58 212.13,0 58.59,-58.58 58.59,-153.55 0,-212.13 -58.57,-58.58 -153.55,-58.58 -212.13,0 -58.58,58.58 -58.58,153.55 0,212.13" /><path
         id="path74"
         style="fill:#ebebeb;fill-opacity:1;fill-rule:nonzero;stroke:none"
         d="m 2277.19,1299.06 c 5.86,5.86 15.36,5.86 21.22,0 5.85,-5.86 5.85,-15.35 0,-21.21 -5.86,-5.86 -15.36,-5.86 -21.22,0 -5.85,5.86 -5.85,15.35 0,21.21" /><path
         id="path76"
         style="fill:#ebebeb;fill-opacity:1;fill-rule:nonzero;stroke:none"
         d="m 2247.19,1327.06 c 5.86,5.86 15.36,5.86 21.22,0 5.85,-5.86 5.85,-15.35 0,-21.21 -5.86,-5.86 -15.36,-5.86 -21.22,0 -5.85,5.86 -5.85,15.35 0,21.21" /><path
         id="path78"
         style="fill:#ebebeb;fill-opacity:1;fill-rule:nonzero;stroke:none"
         d="m 2277.19,1357.06 c 5.86,5.86 15.36,5.86 21.22,0 5.85,-5.86 5.85,-15.35 0,-21.21 -5.86,-5.86 -15.36,-5.86 -21.22,0 -5.85,5.86 -5.85,15.35 0,21.21" /><path
         id="path80"
         style="fill:#ebebeb;fill-opacity:1;fill-rule:nonzero;stroke:none"
         d="m 2307.19,1327.06 c 5.86,5.86 15.36,5.86 21.22,0 5.85,-5.86 5.85,-15.35 0,-21.21 -5.86,-5.86 -15.36,-5.86 -21.22,0 -5.85,5.86 -5.85,15.35 0,21.21" /><path
         id="path82"
         style="fill:#ffffff;fill-opacity:1;fill-rule:nonzero;stroke:none"
         d="m 1986.98,1452.77 c 77.85,-28.33 117.98,-114.41 89.65,-192.26 -28.33,-77.85 -114.41,-117.98 -192.25,-89.65 -77.85,28.34 -117.99,114.41 -89.66,192.26 28.34,77.84 114.41,117.99 192.26,89.65" /><path
         id="path84"
         style="fill:none;stroke:#c0c0c0;stroke-width:20;stroke-linecap:round;stroke-linejoin:round;stroke-miterlimit:10;stroke-dasharray:none;stroke-opacity:1"
         d="m 1986.98,1452.77 c 77.85,-28.33 117.98,-114.41 89.65,-192.26 -28.33,-77.84 -114.41,-117.98 -192.25,-89.65 -77.85,28.34 -117.99,114.41 -89.66,192.26 28.34,77.84 114.41,117.99 192.26,89.65" /><path
         id="path86"
         style="fill:#ebebeb;fill-opacity:1;fill-rule:nonzero;stroke:none"
         d="m 1885.2,1239.3 c 7.79,-2.84 11.8,-11.44 8.97,-19.23 -2.83,-7.78 -11.44,-11.8 -19.23,-8.96 -7.78,2.83 -11.8,11.44 -8.96,19.22 2.83,7.79 11.44,11.8 19.22,8.97" /><path
         id="path88"
         style="fill:#ebebeb;fill-opacity:1;fill-rule:nonzero;stroke:none"
         d="m 1897.9,1278.32 c 7.79,-2.84 11.8,-11.44 8.97,-19.23 -2.83,-7.78 -11.44,-11.8 -19.23,-8.96 -7.78,2.83 -11.8,11.44 -8.96,19.23 2.83,7.78 11.44,11.79 19.22,8.96" /><path
         id="path90"
         style="fill:#ebebeb;fill-opacity:1;fill-rule:nonzero;stroke:none"
         d="m 1937.77,1263.81 c 7.78,-2.83 11.8,-11.44 8.96,-19.23 -2.83,-7.78 -11.44,-11.79 -19.22,-8.96 -7.79,2.83 -11.8,11.44 -8.97,19.22 2.84,7.79 11.44,11.8 19.23,8.97" /><path
         id="path92"
         style="fill:#ebebeb;fill-opacity:1;fill-rule:nonzero;stroke:none"
         d="m 1923.26,1223.94 c 7.78,-2.83 11.8,-11.44 8.96,-19.23 -2.83,-7.78 -11.44,-11.79 -19.22,-8.96 -7.79,2.83 -11.8,11.44 -8.97,19.23 2.84,7.78 11.44,11.79 19.23,8.96" /><path
         id="path94"
         style="fill:#ffffff;fill-opacity:1;fill-rule:nonzero;stroke:none"
         d="m 2737.42,3505.62 c 63.46,53.25 158.08,44.97 211.33,-18.49 53.25,-63.46 44.97,-158.08 -18.49,-211.33 -63.46,-53.25 -158.08,-44.97 -211.33,18.49 -53.25,63.46 -44.97,158.08 18.49,211.33" /><path
         id="path96"
         style="fill:none;stroke:#c0c0c0;stroke-width:20;stroke-linecap:round;stroke-linejoin:round;stroke-miterlimit:10;stroke-dasharray:none;stroke-opacity:1"
         d="m 2737.42,3505.62 c 63.46,53.25 158.08,44.97 211.33,-18.49 53.25,-63.46 44.97,-158.08 -18.49,-211.33 -63.46,-53.25 -158.08,-44.97 -211.33,18.49 -53.25,63.46 -44.97,158.08 18.49,211.33" /><path
         id="path98"
         style="fill:#ebebeb;fill-opacity:1;fill-rule:nonzero;stroke:none"
         d="m 2871.41,3310.74 c 6.34,5.32 15.8,4.49 21.13,-1.85 5.32,-6.35 4.5,-15.81 -1.85,-21.13 -6.35,-5.33 -15.81,-4.5 -21.13,1.85 -5.33,6.34 -4.5,15.8 1.85,21.13" /><path
         id="path100"
         style="fill:#ebebeb;fill-opacity:1;fill-rule:nonzero;stroke:none"
         d="m 2843.96,3341.25 c 6.35,5.32 15.81,4.49 21.13,-1.85 5.33,-6.35 4.5,-15.81 -1.84,-21.13 -6.35,-5.33 -15.81,-4.5 -21.14,1.84 -5.32,6.35 -4.5,15.81 1.85,21.14" /><path
         id="path102"
         style="fill:#ebebeb;fill-opacity:1;fill-rule:nonzero;stroke:none"
         d="m 2876.46,3368.52 c 6.35,5.32 15.81,4.5 21.13,-1.85 5.33,-6.35 4.5,-15.81 -1.84,-21.13 -6.35,-5.33 -15.81,-4.5 -21.14,1.85 -5.32,6.34 -4.5,15.8 1.85,21.13" /><path
         id="path104"
         style="fill:#ebebeb;fill-opacity:1;fill-rule:nonzero;stroke:none"
         d="m 2903.73,3336.02 c 6.35,5.32 15.81,4.5 21.13,-1.85 5.33,-6.35 4.5,-15.81 -1.84,-21.13 -6.35,-5.33 -15.81,-4.5 -21.14,1.84 -5.32,6.35 -4.49,15.81 1.85,21.14" /><path
         id="path106"
         style="fill:#ffffff;fill-opacity:1;fill-rule:nonzero;stroke:none"
         d="m 3092.84,2157.56 c 41.43,71.74 133.16,96.33 204.91,54.9 71.74,-41.42 96.32,-133.16 54.9,-204.9 -41.42,-71.74 -133.16,-96.32 -204.9,-54.9 -71.75,41.42 -96.33,133.16 -54.91,204.9" /><path
         id="path108"
         style="fill:none;stroke:#c0c0c0;stroke-width:20;stroke-linecap:round;stroke-linejoin:round;stroke-miterlimit:10;stroke-dasharray:none;stroke-opacity:1"
         d="m 3092.84,2157.56 c 41.43,71.74 133.16,96.33 204.91,54.9 71.74,-41.42 96.32,-133.16 54.9,-204.9 -41.42,-71.74 -133.16,-96.32 -204.9,-54.9 -71.75,41.42 -96.33,133.16 -54.91,204.9" /><path
         id="path110"
         style="fill:#ebebeb;fill-opacity:1;fill-rule:nonzero;stroke:none"
         d="m 3285.4,2020.26 c 4.14,7.18 13.32,9.63 20.49,5.49 7.18,-4.14 9.63,-13.31 5.49,-20.49 -4.14,-7.17 -13.31,-9.63 -20.49,-5.49 -7.17,4.14 -9.63,13.32 -5.49,20.49" /><path
         id="path112"
         style="fill:#ebebeb;fill-opacity:1;fill-rule:nonzero;stroke:none"
         d="m 3249.18,2039.54 c 4.14,7.18 13.31,9.64 20.49,5.5 7.17,-4.15 9.63,-13.32 5.49,-20.5 -4.14,-7.17 -13.32,-9.63 -20.49,-5.49 -7.18,4.15 -9.63,13.32 -5.49,20.49" /><path
         id="path114"
         style="fill:#ebebeb;fill-opacity:1;fill-rule:nonzero;stroke:none"
         d="m 3270.39,2076.29 c 4.14,7.17 13.32,9.63 20.49,5.49 7.17,-4.15 9.63,-13.32 5.49,-20.49 -4.14,-7.18 -13.32,-9.64 -20.49,-5.49 -7.17,4.14 -9.63,13.31 -5.49,20.49" /><path
         id="path116"
         style="fill:#ebebeb;fill-opacity:1;fill-rule:nonzero;stroke:none"
         d="m 3307.13,2055.07 c 4.14,7.18 13.32,9.63 20.49,5.49 7.18,-4.14 9.63,-13.31 5.49,-20.49 -4.14,-7.17 -13.31,-9.63 -20.49,-5.49 -7.17,4.14 -9.63,13.32 -5.49,20.49" /><path
         id="path118"
         style="fill:#ffffff;fill-opacity:1;fill-rule:nonzero;stroke:none"
         d="m 2570.7,3701.84 c 0,82.84 67.16,150 150,150 82.85,0 150,-67.16 150,-150 0,-82.85 -67.15,-150 -150,-150 -82.84,0 -150,67.15 -150,150" /><path
         id="path120"
         style="fill:none;stroke:#c0c0c0;stroke-width:20;stroke-linecap:round;stroke-linejoin:round;stroke-miterlimit:10;stroke-dasharray:none;stroke-opacity:1"
         d="m 2570.7,3701.84 c 0,82.84 67.16,150 150,150 82.85,0 150,-67.16 150,-150 0,-82.85 -67.15,-150 -150,-150 -82.84,0 -150,67.15 -150,150" /><path
         id="path122"
         style="fill:#ebebeb;fill-opacity:1;fill-rule:nonzero;stroke:none"
         d="m 2806.11,3679.21 c 0,8.28 6.72,15 15,15 8.28,0 15,-6.72 15,-15 0,-8.28 -6.72,-15 -15,-15 -8.28,0 -15,6.72 -15,15" /><path
         id="path124"
         style="fill:#ebebeb;fill-opacity:1;fill-rule:nonzero;stroke:none"
         d="m 2765.1,3677.8 c 0,8.28 6.72,15 15,15 8.28,0 15,-6.72 15,-15 0,-8.29 -6.72,-15 -15,-15 -8.28,0 -15,6.71 -15,15" /><path
         id="path126"
         style="fill:#ebebeb;fill-opacity:1;fill-rule:nonzero;stroke:none"
         d="m 2765.1,3720.22 c 0,8.29 6.72,15 15,15 8.28,0 15,-6.71 15,-15 0,-8.28 -6.72,-15 -15,-15 -8.28,0 -15,6.72 -15,15" /><path
         id="path128"
         style="fill:#ebebeb;fill-opacity:1;fill-rule:nonzero;stroke:none"
         d="m 2807.53,3720.22 c 0,8.29 6.71,15 15,15 8.28,0 15,-6.71 15,-15 0,-8.28 -6.72,-15 -15,-15 -8.29,0 -15,6.72 -15,15" /><path
         id="path130"
         style="fill:#ffffff;fill-opacity:1;fill-rule:nonzero;stroke:none"
         d="m 2536.86,3611.42 c 82.84,0 150,-67.16 150,-150 0,-82.84 -67.16,-150 -150,-150 -82.85,0 -150,67.16 -150,150 0,82.84 67.15,150 150,150" /><path
         id="path132"
         style="fill:none;stroke:#c0c0c0;stroke-width:20;stroke-linecap:round;stroke-linejoin:round;stroke-miterlimit:10;stroke-dasharray:none;stroke-opacity:1"
         d="m 2536.86,3611.42 c 82.84,0 150,-67.16 150,-150 0,-82.84 -67.16,-150 -150,-150 -82.85,0 -150,67.16 -150,150 0,82.84 67.15,150 150,150" /><path
         id="path134"
         style="fill:#ebebeb;fill-opacity:1;fill-rule:nonzero;stroke:none"
         d="m 2514.23,3376.01 c 8.28,0 15,-6.71 15,-15 0,-8.28 -6.72,-15 -15,-15 -8.29,0 -15,6.72 -15,15 0,8.29 6.71,15 15,15" /><path
         id="path136"
         style="fill:#ebebeb;fill-opacity:1;fill-rule:nonzero;stroke:none"
         d="m 2512.81,3417.02 c 8.29,0 15,-6.71 15,-15 0,-8.28 -6.71,-15 -15,-15 -8.28,0 -15,6.72 -15,15 0,8.29 6.72,15 15,15" /><path
         id="path138"
         style="fill:#ebebeb;fill-opacity:1;fill-rule:nonzero;stroke:none"
         d="m 2555.24,3417.02 c 8.28,0 15,-6.71 15,-15 0,-8.28 -6.72,-15 -15,-15 -8.28,0 -15,6.72 -15,15 0,8.29 6.72,15 15,15" /><path
         id="path140"
         style="fill:#ebebeb;fill-opacity:1;fill-rule:nonzero;stroke:none"
         d="m 2555.24,3374.6 c 8.28,0 15,-6.72 15,-15 0,-8.29 -6.72,-15 -15,-15 -8.28,0 -15,6.71 -15,15 0,8.28 6.72,15 15,15" /><path
         id="path142"
         style="fill:#ffffff;fill-opacity:1;fill-rule:nonzero;stroke:none"
         d="m 2917.7,2266.93 c 82.85,0 150,-67.16 150,-150 0,-82.84 -67.15,-150 -150,-150 -82.84,0 -150,67.16 -150,150 0,82.84 67.16,150 150,150" /><path
         id="path144"
         style="fill:none;stroke:#c0c0c0;stroke-width:20;stroke-linecap:round;stroke-linejoin:round;stroke-miterlimit:10;stroke-dasharray:none;stroke-opacity:1"
         d="m 2917.7,2266.93 c 82.85,0 150,-67.16 150,-150 0,-82.84 -67.15,-150 -150,-150 -82.84,0 -150,67.16 -150,150 0,82.84 67.16,150 150,150" /><path
         id="path146"
         style="fill:#ebebeb;fill-opacity:1;fill-rule:nonzero;stroke:none"
         d="m 2895.07,2031.52 c 8.29,0 15,-6.72 15,-15 0,-8.29 -6.71,-15 -15,-15 -8.28,0 -15,6.71 -15,15 0,8.28 6.72,15 15,15" /><path
         id="path148"
         style="fill:#ebebeb;fill-opacity:1;fill-rule:nonzero;stroke:none"
         d="m 2893.66,2072.53 c 8.29,0 15,-6.71 15,-15 0,-8.28 -6.71,-15 -15,-15 -8.28,0 -15,6.72 -15,15 0,8.29 6.72,15 15,15" /><path
         id="path150"
         style="fill:#ebebeb;fill-opacity:1;fill-rule:nonzero;stroke:none"
         d="m 2936.09,2072.53 c 8.28,0 15,-6.71 15,-15 0,-8.28 -6.72,-15 -15,-15 -8.29,0 -15,6.72 -15,15 0,8.29 6.71,15 15,15" /><path
         id="path152"
         style="fill:#ebebeb;fill-opacity:1;fill-rule:nonzero;stroke:none"
         d="m 2936.09,2030.11 c 8.28,0 15,-6.72 15,-15 0,-8.29 -6.72,-15 -15,-15 -8.29,0 -15,6.71 -15,15 0,8.28 6.71,15 15,15" /><path
         id="path154"
         style="fill:#ffffff;fill-opacity:1;fill-rule:nonzero;stroke:none"
         d="m 3138.71,2230.53 c -77.85,-28.33 -163.92,11.81 -192.26,89.65 -28.33,77.85 11.81,163.93 89.66,192.26 77.84,28.33 163.92,-11.8 192.25,-89.65 28.34,-77.85 -11.8,-163.92 -89.65,-192.26" /><path
         id="path156"
         style="fill:none;stroke:#c0c0c0;stroke-width:20;stroke-linecap:round;stroke-linejoin:round;stroke-miterlimit:10;stroke-dasharray:none;stroke-opacity:1"
         d="m 3138.71,2230.53 c -77.85,-28.33 -163.92,11.81 -192.26,89.65 -28.33,77.85 11.81,163.93 89.66,192.26 77.84,28.33 163.92,-11.8 192.25,-89.65 28.34,-77.85 -11.8,-163.92 -89.65,-192.26" /><path
         id="path158"
         style="fill:#ebebeb;fill-opacity:1;fill-rule:nonzero;stroke:none"
         d="m 3079.46,2459.48 c -7.78,-2.83 -16.39,1.18 -19.23,8.97 -2.83,7.78 1.18,16.39 8.97,19.23 7.78,2.83 16.39,-1.19 19.23,-8.97 2.83,-7.78 -1.19,-16.39 -8.97,-19.23" /><path
         id="path160"
         style="fill:#ebebeb;fill-opacity:1;fill-rule:nonzero;stroke:none"
         d="m 3094.82,2421.43 c -7.79,-2.84 -16.4,1.18 -19.23,8.96 -2.83,7.79 1.18,16.4 8.96,19.23 7.79,2.83 16.4,-1.18 19.23,-8.97 2.83,-7.78 -1.18,-16.39 -8.96,-19.22" /><path
         id="path162"
         style="fill:#ebebeb;fill-opacity:1;fill-rule:nonzero;stroke:none"
         d="m 3054.95,2406.92 c -7.79,-2.83 -16.4,1.18 -19.23,8.96 -2.83,7.79 1.18,16.39 8.97,19.23 7.78,2.83 16.39,-1.18 19.22,-8.97 2.84,-7.78 -1.18,-16.39 -8.96,-19.22" /><path
         id="path164"
         style="fill:#ebebeb;fill-opacity:1;fill-rule:nonzero;stroke:none"
         d="m 3040.44,2446.79 c -7.79,-2.84 -16.4,1.17 -19.23,8.96 -2.83,7.79 1.18,16.39 8.97,19.23 7.78,2.83 16.39,-1.18 19.22,-8.97 2.83,-7.78 -1.18,-16.39 -8.96,-19.22" /><path
         id="path166"
         style="fill:#ffffff;fill-opacity:1;fill-rule:nonzero;stroke:none"
         d="m 2010.84,3469.74 c -82.84,0 -150,67.15 -150,150 0,82.84 67.16,150 150,150 82.84,0 150,-67.16 150,-150 0,-82.85 -67.16,-150 -150,-150" /><path
         id="path168"
         style="fill:none;stroke:#c0c0c0;stroke-width:20;stroke-linecap:round;stroke-linejoin:round;stroke-miterlimit:10;stroke-dasharray:none;stroke-opacity:1"
         d="m 2010.84,3469.74 c -82.84,0 -150,67.15 -150,150 0,82.84 67.16,150 150,150 82.84,0 150,-67.16 150,-150 0,-82.85 -67.16,-150 -150,-150" /><path
         id="path170"
         style="fill:#ebebeb;fill-opacity:1;fill-rule:nonzero;stroke:none"
         d="m 2033.47,3705.15 c -8.29,0 -15,6.71 -15,15 0,8.28 6.71,15 15,15 8.28,0 15,-6.72 15,-15 0,-8.29 -6.72,-15 -15,-15" /><path
         id="path172"
         style="fill:#ebebeb;fill-opacity:1;fill-rule:nonzero;stroke:none"
         d="m 2034.88,3664.14 c -8.28,0 -15,6.71 -15,15 0,8.28 6.72,15 15,15 8.29,0 15,-6.72 15,-15 0,-8.29 -6.71,-15 -15,-15" /><path
         id="path174"
         style="fill:#ebebeb;fill-opacity:1;fill-rule:nonzero;stroke:none"
         d="m 1992.46,3664.14 c -8.29,0 -15,6.71 -15,15 0,8.28 6.71,15 15,15 8.28,0 15,-6.72 15,-15 0,-8.29 -6.72,-15 -15,-15" /><path
         id="path176"
         style="fill:#ebebeb;fill-opacity:1;fill-rule:nonzero;stroke:none"
         d="m 1992.46,3706.56 c -8.29,0 -15,6.72 -15,15 0,8.29 6.71,15 15,15 8.28,0 15,-6.71 15,-15 0,-8.28 -6.72,-15 -15,-15" /><path
         id="path178"
         style="fill:none;stroke:#ff2300;stroke-width:190;stroke-linecap:round;stroke-linejoin:round;stroke-miterlimit:10;stroke-dasharray:none;stroke-opacity:1"
         d="m 2145.13,4294.2 c 36.62,202.99 -78.18,283.37 -256.41,179.54 -178.23,-103.84 -352.39,-352.57 -389.01,-555.56 -36.61,-202.99 78.19,-283.37 256.42,-179.54 178.22,103.84 352.39,352.57 389,555.56" /><path
         id="path180"
         style="fill:none;stroke:#ff2300;stroke-width:200;stroke-linecap:round;stroke-linejoin:round;stroke-miterlimit:10;stroke-dasharray:none;stroke-opacity:1"
         d="m 1388.87,3371.39 c 103.84,178.22 23.45,293.02 -179.54,256.41 -202.99,-36.62 -451.717,-210.78 -555.553,-389 -103.832,-178.23 -23.449,-293.03 179.539,-256.41 202.994,36.61 451.724,210.77 555.554,389" /><path
         id="path182"
         style="fill:#ff2300;fill-opacity:1;fill-rule:nonzero;stroke:none"
         d="m 1235,3705 190.06,189.32 c 22.56,22.56 92.81,-11.07 156.8,-75.07 64,-63.99 97.63,-134.23 75.07,-156.79 l -190.71,-190.71 c -22.56,-22.56 -92.81,11.07 -156.8,75.06 -63.99,64 -97.62,134.24 -74.42,158.19 z" /><path
         id="path184"
         style="fill:none;stroke:#ff2300;stroke-width:70;stroke-linecap:round;stroke-linejoin:round;stroke-miterlimit:10;stroke-dasharray:none;stroke-opacity:1"
         d="m 1235,3705 190.06,189.32 c 22.56,22.56 92.81,-11.07 156.8,-75.07 64,-63.99 97.63,-134.23 75.07,-156.79 l -190.71,-190.71 c -22.56,-22.56 -92.81,11.07 -156.8,75.06 -63.99,64 -97.62,134.24 -74.42,158.19 z" /><path
         id="path186"
         style="fill:#ff2300;fill-opacity:1;fill-rule:nonzero;stroke:none"
         d="m 1390,3480 142.11,67.61 c 17.22,8.03 112.69,-160.2 213.09,-375.51 100.4,-215.31 167.91,-396.57 150.68,-404.6 l -145.62,-67.91 c -17.22,-8.03 -112.69,160.2 -213.09,375.5 -100.4,215.32 -167.91,396.58 -147.17,404.91 z" /><path
         id="path188"
         style="fill:#ff2300;fill-opacity:1;fill-rule:nonzero;stroke:none"
         d="m 1580,3590 65.77,148.98 c 8.03,17.23 189.29,-50.28 404.61,-150.68 215.31,-100.4 383.53,-195.87 375.5,-213.09 l -67.9,-145.62 c -8.03,-17.23 -189.3,50.28 -404.61,150.68 -215.31,100.4 -383.54,195.87 -373.37,209.73 z" /></g></g></svg>